<svg id="eFMJmc5TkAW1" xmlns="http://www.w3.org/2000/svg" xmlns:xlink="http://www.w3.org/1999/xlink" viewBox="0 0 500 500" shape-rendering="geometricPrecision" text-rendering="geometricPrecision"><g><rect width="500" height="500" rx="0" ry="0" fill="rgba(255,255,255,0)"/><rect width="500" height="500" rx="0" ry="0" fill="none"/></g><g><g><g><g><path id="eFMJmc5TkAW9" d="M54.194,257.705c20.295,22.975,45.983,31.902,58.651,59.817c8.684,19.135,4.61,41.789,11.026,61.798c8.794,27.426,37.686,45.85,66.487,45.949s56.255-16.219,73.345-39.401c5.605-7.603,10.463-16.151,18.32-21.393c11.253-7.507,25.85-6.542,39.323-7.743c33.221-2.96,64.703-21.615,83.253-49.333c0,0,48.122-56.781,14.056-138.012-9.902-23.611-25.953-45.295-48.087-58.162-22.134-12.868-60.65-13.174-83.44-1.507-24.23,12.404-40.339,39.591-66.897,45.563-15.394,3.461-31.287-1.037-46.789-3.979-21.745-4.128-43.911-6.692-65.868-3.904-25.843,3.282-51.91,16.24-63.965,45.374-4.222,10.203-5.641,21.396-3.958,32.31c1.508,9.787,5.322,22.184,14.543,32.623Z" fill="#3b2b75"/></g><g><path id="eFMJmc5TkAW11" d="M253.902,89.933c-5.586-7.013-14.289-10.841-22.992-12.998-12.008-2.976-24.921-3.205-36.569.962s-21.865,13.05-26.16,24.652-1.928,25.786,6.984,34.367c4.994,4.808,12.007,7.394,18.902,7.375c4.089.436,8.266-.024,12.109-1.504c8.551-3.294,14.835-10.771,23.035-14.862c8.912-4.445,20.366-5.155,26.397-13.079c5.43-7.135,3.88-17.9-1.706-24.913Z" fill="#4f4f6a"/></g><g><path d="M93.239,338.465c-.931-1.907-1.797-3.837-2.363-5.879-1.811-6.54-.495-13.999-4.007-19.806-4.41-7.293-15.273-8.624-22.663-4.379-7.39,4.246-11.616,12.552-13.418,20.882-1.11,5.13-1.433,10.594.324,15.539c2.044,5.751,6.693,10.22,11.762,13.618c5.636,3.778,12.218,6.551,19,6.321c3.02-.102,6.064-.903,8.75-2.306c2.118-.92,3.998-2.342,5.292-4.186.94-1.114,1.733-2.35,2.313-3.714c2.409-5.669.236-13.129-4.99-16.09Z" fill="#f5f5ff"/></g></g><g><g><path d="M360.462,337.98h-211.74c-1.987,0-3.613-1.626-3.613-3.613v-135.86c0-1.987,1.626-3.613,3.613-3.613h211.74c1.987,0,3.613,1.626,3.613,3.613v135.86c0,1.987-1.626,3.613-3.613,3.613Z" fill="#7b70ee"/><rect width="208.126" height="118.805" rx="0" ry="0" transform="translate(150.529 205.299)" fill="#d5cbfb"/><path d="M255.901,199.67c0,.723-.586,1.308-1.309,1.308s-1.308-.586-1.308-1.308c0-.723.586-1.309,1.308-1.309.723.001,1.309.586,1.309,1.309Z" fill="#d5cbfb"/><g><path d="M393.546,384.667L366.65,341.861c-1.518-2.416-4.171-3.882-7.024-3.882h-109.722-6.07-94.275c-2.853,0-5.506,1.466-7.024,3.882l-26.896,42.806c-.761,1.212-1.032,2.652-.794,4.043h279.494c.238-1.39-.032-2.831-.793-4.043Z" fill="#d5cbfb"/><path d="M114.845,388.711c.049.287.112.572.205.852l.424,1.272c.786,2.357,2.991,3.946,5.475,3.946h122.884h6.07h138.331c2.484,0,4.69-1.59,5.475-3.946l.424-1.272c.093-.28.156-.566.205-.852h-279.493Z" fill="#7b70ee"/></g><g><polygon points="159.679,359.104 160.989,356.223 154.508,356.223 153.121,359.104" fill="#7b70ee"/><polygon points="171.096,350.902 171.739,349.399 172.328,348.02 166.057,348.02 164.747,350.902" fill="#7b70ee"/><polygon points="162.328,356.223 161.019,359.104 167.591,359.104 168.822,356.223" fill="#7b70ee"/><polygon points="161.543,355.003 162.853,352.121 156.483,352.121 155.095,355.003" fill="#7b70ee"/><polygon points="293.498,348.02 294.223,350.902 299.796,350.902 298.994,348.02" fill="#7b70ee"/><polygon points="193.503,356.223 192.623,359.104 199.249,359.104 200.091,356.223" fill="#7b70ee"/><polygon points="185.754,356.223 184.717,359.104 191.348,359.104 192.228,356.223" fill="#7b70ee"/><polygon points="177.969,356.223 176.815,359.104 183.421,359.104 184.458,356.223" fill="#7b70ee"/><polygon points="170.148,356.223 168.917,359.104 175.501,359.104 176.655,356.223" fill="#7b70ee"/><polygon points="300.26,348.02 301.062,350.902 306.269,350.902 305.426,348.02" fill="#7b70ee"/><polygon points="215.913,352.121 215.188,355.003 220.428,355.003 221.075,352.121" fill="#7b70ee"/><polygon points="272.764,348.02 273.254,350.902 279.301,350.902 278.732,348.02" fill="#7b70ee"/><polygon points="214.962,350.902 215.687,348.02 210.191,348.02 209.388,350.902" fill="#7b70ee"/><polygon points="208.122,350.902 208.925,348.02 203.759,348.02 202.916,350.902" fill="#7b70ee"/><polygon points="221.349,350.902 221.996,348.02 216.944,348.02 216.22,350.902" fill="#7b70ee"/><polygon points="306.697,348.02 307.539,350.902 314.055,350.902 313.173,348.02" fill="#7b70ee"/><polygon points="188.705,348.02 187.668,350.902 193.855,350.902 194.31,349.415 194.736,348.02" fill="#7b70ee"/><polygon points="186.372,350.902 187.409,348.02 181.253,348.02 180.1,350.902" fill="#7b70ee"/><polygon points="173.655,348.02 172.423,350.902 178.786,350.902 179.386,349.402 179.939,348.02" fill="#7b70ee"/><polygon points="287.189,348.02 287.835,350.902 292.965,350.902 292.24,348.02" fill="#7b70ee"/><polygon points="279.975,348.02 280.544,350.902 286.585,350.902 285.939,348.02" fill="#7b70ee"/><polygon points="201.645,350.902 202.488,348.02 196.011,348.02 195.13,350.902" fill="#7b70ee"/><polygon points="209.265,346.801 210.013,344.118 204.899,344.118 204.114,346.801" fill="#7b70ee"/><polygon points="202.844,346.801 203.628,344.118 197.205,344.118 196.384,346.801" fill="#7b70ee"/><polygon points="265.643,348.02 265.979,350.902 272.017,350.902 271.527,348.02" fill="#7b70ee"/><polygon points="229.45,346.801 229.98,344.118 224.123,344.118 223.521,346.801" fill="#7b70ee"/><polygon points="222.27,346.801 222.873,344.118 217.926,344.118 217.252,346.801" fill="#7b70ee"/><polygon points="215.994,346.801 216.668,344.118 211.279,344.118 210.531,346.801" fill="#7b70ee"/><polygon points="336.857,348.02 338.088,350.902 344.438,350.902 343.128,348.02" fill="#7b70ee"/><polygon points="172.85,346.801 173.997,344.118 167.83,344.118 166.611,346.801" fill="#7b70ee"/><polygon points="180.428,346.801 181.502,344.118 175.323,344.118 174.176,346.801" fill="#7b70ee"/><polygon points="195.109,346.801 195.929,344.118 190.109,344.118 189.144,346.801" fill="#7b70ee"/><polygon points="344.468,348.02 345.778,350.902 352.114,350.902 350.726,348.02" fill="#7b70ee"/><polygon points="187.848,346.801 188.813,344.118 182.816,344.118 181.742,346.801" fill="#7b70ee"/><polygon points="314.448,348.02 315.33,350.902 321.517,350.902 320.48,348.02" fill="#7b70ee"/><polygon points="228.832,356.223 228.263,359.104 234.532,359.104 235.023,356.223" fill="#7b70ee"/><polygon points="201.362,356.223 200.52,359.104 205.836,359.104 206.639,356.223" fill="#7b70ee"/><polygon points="221.405,356.223 220.758,359.104 227.02,359.104 227.589,356.223" fill="#7b70ee"/><polygon points="207.906,356.223 207.103,359.104 212.898,359.104 213.623,356.223" fill="#7b70ee"/><polygon points="214.881,356.223 214.156,359.104 219.507,359.104 220.154,356.223" fill="#7b70ee"/><polygon points="237.658,348.02 237.167,350.902 243.206,350.902 243.541,348.02" fill="#7b70ee"/><polygon points="236.629,346.801 237.086,344.118 231.223,344.118 230.693,346.801" fill="#7b70ee"/><polygon points="229.642,352.121 229.073,355.003 235.231,355.003 235.722,352.121" fill="#7b70ee"/><polygon points="329.245,348.02 330.399,350.902 336.762,350.902 335.53,348.02" fill="#7b70ee"/><polygon points="242.729,355.003 243.064,352.121 236.959,352.121 236.468,355.003" fill="#7b70ee"/><polygon points="321.775,348.02 322.813,350.902 329.085,350.902 327.931,348.02" fill="#7b70ee"/><polygon points="163.407,350.902 164.717,348.02 158.458,348.02 157.07,350.902" fill="#7b70ee"/><polygon points="302.082,359.104 301.279,356.223 295.562,356.223 296.286,359.104" fill="#7b70ee"/><polygon points="209.048,352.121 208.246,355.003 213.93,355.003 214.655,352.121" fill="#7b70ee"/><polygon points="312.8,346.801 311.98,344.118 305.557,344.118 306.34,346.801" fill="#7b70ee"/><polygon points="327.442,346.801 326.369,344.118 320.371,344.118 321.337,346.801" fill="#7b70ee"/><polygon points="320.041,346.801 319.075,344.118 313.256,344.118 314.076,346.801" fill="#7b70ee"/><polygon points="285.664,346.801 285.062,344.118 279.205,344.118 279.734,346.801" fill="#7b70ee"/><polygon points="278.492,346.801 277.962,344.118 272.099,344.118 272.556,346.801" fill="#7b70ee"/><polygon points="335.009,346.801 333.862,344.118 327.683,344.118 328.757,346.801" fill="#7b70ee"/><polygon points="298.654,346.801 297.906,344.118 292.516,344.118 293.191,346.801" fill="#7b70ee"/><polygon points="291.933,346.801 291.258,344.118 286.312,344.118 286.914,346.801" fill="#7b70ee"/><polygon points="295.029,359.104 294.304,356.223 289.031,356.223 289.677,359.104" fill="#7b70ee"/><polygon points="340.268,359.104 339.036,356.223 332.53,356.223 333.684,359.104" fill="#7b70ee"/><polygon points="324.469,359.104 323.431,356.223 316.956,356.223 317.837,359.104" fill="#7b70ee"/><polygon points="356.064,359.104 354.675,356.223 348.196,356.223 349.506,359.104" fill="#7b70ee"/><polygon points="348.167,359.104 346.857,356.223 340.363,356.223 341.594,359.104" fill="#7b70ee"/><polygon points="332.369,359.104 331.215,356.223 324.728,356.223 325.764,359.104" fill="#7b70ee"/><polygon points="288.427,359.104 287.781,356.223 281.596,356.223 282.165,359.104" fill="#7b70ee"/><polygon points="342.574,346.801 341.355,344.118 335.188,344.118 336.335,346.801" fill="#7b70ee"/><polygon points="353.468,350.902 359.315,350.902 357.686,348.02 352.08,348.02" fill="#7b70ee"/><polygon points="308.666,359.104 307.823,356.223 302.545,356.223 303.348,359.104" fill="#7b70ee"/><polygon points="350.139,346.801 348.846,344.118 342.694,344.118 343.913,346.801" fill="#7b70ee"/><polygon points="316.562,359.104 315.681,356.223 309.094,356.223 309.936,359.104" fill="#7b70ee"/><polygon points="356.998,346.801 355.481,344.118 350.2,344.118 351.493,346.801" fill="#7b70ee"/><polygon points="305.07,346.801 304.287,344.118 299.172,344.118 299.92,346.801" fill="#7b70ee"/><polygon points="265.705,359.104 265.37,356.223 259.048,356.223 259.165,359.104" fill="#7b70ee"/><polygon points="171.902,352.121 171.259,353.625 170.67,355.003 177.144,355.003 178.297,352.121" fill="#7b70ee"/><polygon points="272.717,355.003 272.226,352.121 266.12,352.121 266.456,355.003" fill="#7b70ee"/><polygon points="169.343,355.003 170.576,352.121 164.192,352.121 163.507,353.628 162.883,355.003" fill="#7b70ee"/><polygon points="223.247,348.02 222.6,350.902 228.64,350.902 229.209,348.02" fill="#7b70ee"/><polygon points="230.453,348.02 229.883,350.902 235.93,350.902 236.421,348.02" fill="#7b70ee"/><polygon points="194.757,352.121 193.876,355.003 200.447,355.003 201.289,352.121" fill="#7b70ee"/><polygon points="179.611,352.121 178.457,355.003 184.896,355.003 185.933,352.121" fill="#7b70ee"/><polygon points="202.56,352.121 201.718,355.003 206.979,355.003 207.782,352.121" fill="#7b70ee"/><polygon points="258.884,352.121 259,355.003 265.228,355.003 264.892,352.121" fill="#7b70ee"/><polygon points="187.23,352.121 186.193,355.003 192.601,355.003 193.482,352.121" fill="#7b70ee"/><polygon points="264.274,346.801 263.961,344.118 258.561,344.118 258.669,346.801" fill="#7b70ee"/><polygon points="280.922,359.104 280.353,356.223 274.162,356.223 274.652,359.104" fill="#7b70ee"/><polygon points="251.845,344.118 251.736,346.801 257.448,346.801 257.34,344.118" fill="#7b70ee"/><polygon points="251.687,348.02 251.571,350.902 257.613,350.902 257.497,348.02" fill="#7b70ee"/><polygon points="264.751,350.902 264.415,348.02 258.718,348.02 258.834,350.902" fill="#7b70ee"/><polygon points="271.319,346.801 270.862,344.118 265.189,344.118 265.502,346.801" fill="#7b70ee"/><polygon points="251.522,352.121 251.405,355.003 257.779,355.003 257.663,352.121" fill="#7b70ee"/><polygon points="251.357,356.223 251.24,359.104 257.944,359.104 257.828,356.223" fill="#7b70ee"/><polygon points="250.516,346.801 250.624,344.118 245.223,344.118 244.911,346.801" fill="#7b70ee"/><polygon points="237.866,346.801 243.683,346.801 243.995,344.118 238.324,344.118" fill="#7b70ee"/><polygon points="280.112,355.003 279.542,352.121 273.462,352.121 273.954,355.003" fill="#7b70ee"/><polygon points="222.326,352.121 221.679,355.003 227.83,355.003 228.399,352.121" fill="#7b70ee"/><polygon points="144.544,360.323 143.119,362.844 149.966,362.844 151.18,360.323" fill="#7b70ee"/><polygon points="307.467,355.003 306.625,352.121 301.402,352.121 302.206,355.003" fill="#7b70ee"/><polygon points="303.688,360.323 304.391,362.844 309.759,362.844 309.022,360.323" fill="#7b70ee"/><polygon points="293.997,355.003 293.272,352.121 288.11,352.121 288.756,355.003" fill="#7b70ee"/><polygon points="250.02,359.104 250.136,356.223 243.815,356.223 243.48,359.104" fill="#7b70ee"/><polygon points="326.203,360.323 327.11,362.844 333.866,362.844 332.858,360.323" fill="#7b70ee"/><polygon points="346.303,355.003 344.993,352.121 338.609,352.121 339.841,355.003" fill="#7b70ee"/><polygon points="334.172,360.323 335.18,362.844 341.867,362.844 340.789,360.323" fill="#7b70ee"/><polygon points="236.26,356.223 235.769,359.104 242.252,359.104 242.587,356.223" fill="#7b70ee"/><polygon points="146.861,356.223 145.233,359.104 151.767,359.104 153.155,356.223" fill="#7b70ee"/><polygon points="267.074,360.323 267.368,362.844 274.053,362.844 273.624,360.323" fill="#7b70ee"/><polygon points="168.396,360.323 167.318,362.844 174.004,362.844 175.013,360.323" fill="#7b70ee"/><polygon points="249.971,360.323 243.338,360.323 243.045,362.844 249.869,362.844" fill="#7b70ee"/><polygon points="338.514,355.003 337.284,352.121 330.888,352.121 332.041,355.003" fill="#7b70ee"/><polygon points="152.534,360.323 151.319,362.844 157.979,362.844 159.125,360.323" fill="#7b70ee"/><polygon points="280.785,352.121 281.355,355.003 287.506,355.003 286.86,352.121" fill="#7b70ee"/><polygon points="310.292,360.323 311.029,362.844 317.706,362.844 316.934,360.323" fill="#7b70ee"/><polygon points="282.406,360.323 282.903,362.844 289.267,362.844 288.702,360.323" fill="#7b70ee"/><polygon points="315.308,355.003 314.427,352.121 307.896,352.121 308.737,355.003" fill="#7b70ee"/><polygon points="322.993,355.003 321.955,352.121 315.703,352.121 316.584,355.003" fill="#7b70ee"/><polygon points="274.861,360.323 275.29,362.844 281.66,362.844 281.163,360.323" fill="#7b70ee"/><polygon points="318.21,360.323 318.982,362.844 325.814,362.844 324.907,360.323" fill="#7b70ee"/><polygon points="151.498,348.02 149.869,350.902 155.717,350.902 157.105,348.02" fill="#7b70ee"/><polygon points="350.06,360.323 351.206,362.844 357.865,362.844 356.65,360.323" fill="#7b70ee"/><polygon points="153.703,344.118 152.187,346.801 157.692,346.801 158.984,344.118" fill="#7b70ee"/><polygon points="330.727,355.003 329.574,352.121 323.251,352.121 324.289,355.003" fill="#7b70ee"/><polygon points="233.895,362.844 234.324,360.323 176.327,360.323 175.317,362.844" fill="#7b70ee"/><polygon points="289.952,360.323 290.517,362.844 295.97,362.844 295.335,360.323" fill="#7b70ee"/><polygon points="244.434,350.902 250.351,350.902 250.467,348.02 244.769,348.02" fill="#7b70ee"/><polygon points="362.323,356.223 356.029,356.223 359.219,362.844 366.066,362.844" fill="#7b70ee"/><polygon points="355.443,355.003 361.634,355.003 360.004,352.121 354.055,352.121" fill="#7b70ee"/><polygon points="354.089,355.003 352.701,352.121 346.332,352.121 347.642,355.003" fill="#7b70ee"/><polygon points="241.817,362.844 242.11,360.323 235.561,360.323 235.132,362.844" fill="#7b70ee"/><polygon points="251.192,360.323 251.09,362.844 266.141,362.844 265.846,360.323" fill="#7b70ee"/><polygon points="342.116,360.323 343.193,362.844 349.867,362.844 348.721,360.323" fill="#7b70ee"/><polygon points="300.94,355.003 300.136,352.121 294.53,352.121 295.255,355.003" fill="#7b70ee"/><polygon points="296.593,360.323 297.228,362.844 303.125,362.844 302.422,360.323" fill="#7b70ee"/><polygon points="149.179,352.121 147.551,355.003 153.742,355.003 155.13,352.121" fill="#7b70ee"/><polygon points="165.271,346.801 166.491,344.118 160.338,344.118 159.046,346.801" fill="#7b70ee"/><polygon points="160.464,360.323 159.318,362.844 165.991,362.844 167.069,360.323" fill="#7b70ee"/><polygon points="250.185,355.003 250.302,352.121 244.292,352.121 243.957,355.003" fill="#7b70ee"/><polygon points="272.925,356.223 266.598,356.223 266.933,359.104 273.416,359.104" fill="#7b70ee"/></g><path d="M292.8,384.32h-76.415c-.325,0-.622-.15-.815-.411s-.248-.589-.153-.9l4.858-15.788c.132-.428.521-.714.968-.714h66.7c.447,0,.836.287.968.714l4.858,15.788c.096.311.04.639-.153.9-.194.261-.491.411-.816.411Zm-71.558-16.91c-.049,0-.09.031-.105.078l-4.857,15.788c-.014.043.001.077.016.097s.042.044.088.044h76.416c.046,0,.073-.024.088-.044s.03-.054.017-.097l-4.858-15.789c-.014-.045-.057-.077-.105-.077h-66.7Z" fill="#7b70ee"/></g><g transform="translate(-.914781-1.882505)"><g><g><polygon points="291.701,223.505 208.694,236.597 288.505,276.529 371.169,264.235" fill="#050547"/><polygon points="208.694,236.597 208.694,238.496 288.565,280.236 371.169,266.053 371.169,264.235 288.505,276.529" fill="#2525ad"/><path d="M239.568,281.523l-1.272,8.439c0,0,34.085,27.367,82.146,13.911l.736-6.594c-42.482,7.108-69.224-6.663-81.61-15.756Z" fill="#2525ad"/><g><path d="M340.766,325.959c-4.448-3.528-7.599-8.732-9.1-14.207-.111-.406-.653-.259-.716.089-.101-.135-.304-.154-.467-.069-.078-.282-.537-.411-.713-.07-3.05,5.913-.694,12.592,1.347,18.441.16.46.669.212.508-.249-1.597-4.578-3.307-9.704-2.335-14.527-.542,6.098,1.49,12.343,5.212,17.182.269.349.686-.07.416-.422-3.379-4.393-5.125-9.968-4.945-15.505.104,2.181.442,4.356,1.14,6.413c1.069,3.151,2.856,6.159,4.645,8.949.263.411.678-.012.415-.422-1.719-2.682-3.202-5.563-4.275-8.574-.46-1.29-.762-2.642-.955-4.013c1.028,4.435,3.17,8.605,6.249,11.99.324.356.753.04.425-.321-3.374-3.709-5.402-8.458-6.239-13.358c1.238,4.589,3.522,8.929,6.539,12.657.305.377.623-.032.315-.413-2.945-3.639-4.892-7.894-6.108-12.371c1.638,4.618,3.764,9.073,7.519,12.357.368.322.77-.051.403-.372-2.579-2.256-4.279-5.303-5.665-8.359c1.504,2.672,3.312,5.169,5.41,7.426.332.357.612-.211.284-.564-1.846-1.985-3.262-4.184-4.634-6.509c1.413,1.893,3.055,3.617,4.915,5.092.38.303.793.033.41-.271Z" fill="#f0c64b"/><path d="M332.948,262.056c-1.734-2.072-4.075-3.434-6.473-4.597-4.769-2.312-10.066-3.317-15.235-4.295-7.306-1.382-14.78-2.662-20.855-7.266-.236-.179-.464-.089-.6.093-.012.011-.02.025-.03.037-.004.007-.009.011-.013.018-.146.18-.186.439.031.646c4.452,4.256,10.404,6.363,16.263,7.846c5.921,1.499,11.964,2.525,17.631,4.878.176.073.352.146.528.219.034.014.221.1.223.099.29.141.577.286.866.429c1.061.526,2.094,1.071,3.065,1.754c1.164.819,2.242,1.822,2.99,3.041.818,1.333,1.102,2.828,1.072,4.378-.031,1.613-.33,3.217-.592,4.805-.271,1.645-.515,3.294-.768,4.941-.523,3.406-1.01,6.814-1.378,10.24-.809,7.542-1.03,15.235.326,22.73.101.556,1.034.434.992-.134-.527-7.113.053-14.245,1.051-21.292.497-3.507,1.099-7,1.712-10.489.575-3.275,1.335-6.576,1.604-9.894.244-3.009-.453-5.848-2.41-8.187Z" fill="#f0c64b"/><path d="M329.623,312.588c.086-.042.173-.08.261-.117.053-.021.051-.02-.008.002.026-.009.051-.019.077-.027.039-.013.078-.026.117-.038.189-.058.382-.1.578-.128.047-.007.095-.015.142-.018-.132.007.022,0,.048-.002.095-.005.191-.007.286-.005s.19.007.285.016c.047.005.095.01.142.016.027.004.054.007.081.012-.066-.012-.07-.013-.013-.002.139.026.261.033.391-.036.107-.057.211-.173.243-.293.064-.237-.051-.582-.329-.634-.949-.177-1.907-.065-2.778.362-.238.117-.343.454-.207.684.143.243.43.333.684.208v0Z" fill="#d8a32b"/><path d="M329.522,311.602c.086-.042.173-.08.261-.117.053-.021.051-.02-.008.002.026-.009.051-.018.077-.027.039-.013.078-.026.117-.038.189-.058.382-.101.578-.128.047-.007.095-.015.142-.018-.132.007.022,0,.048-.002.095-.005.191-.007.286-.005s.191.007.285.017c.048.005.095.01.142.016.027.004.054.008.081.012-.066-.012-.071-.013-.013-.002.139.026.261.033.391-.036.107-.057.212-.174.243-.293.064-.237-.051-.583-.329-.634-.95-.177-1.907-.065-2.778.362-.237.117-.343.455-.207.684.143.242.429.332.684.207v0Z" fill="#d8a32b"/></g></g><g><polygon points="323.674,277.421 324.086,274.137 288.565,280.236 243.848,256.867 242.89,262.389 287.672,284.934" fill="#0c0c5b"/><path d="M287.672,284.934l-44.783-22.545-3.321,19.134c12.386,9.093,39.128,22.864,81.61,15.757l2.495-19.859-36.001,7.513Z" fill="#1c1c84"/></g></g><g><g><path d="M233.385,310.894c1.982,5.339-2.277,11.844-9.512,14.53s-11.365-.701-14.259-5.606c-4.233-7.174-.153-11.043,7.082-13.729c7.236-2.685,14.707-.534,16.689,4.805Z" fill="#fff6dc"/><path d="M161.136,252.093c0,0,17.955,18.49,32.668,51.677c0,0,6.978,18.016,11.556,22.52c0,0-3.705-4.175,1.953-10.841c4.156-4.896,10.217-7.896,16.634-8.123c3.585-.127,7.331.623,9.463,3.637c0,0-23.946-28.208-39.591-52.547-6.251-9.724-9.21-17.758-10.509-23.9c0,0-1.179-1.387-3.528-2.547-8.638-4.266-18.813,1.476-20.32,10.991-.141.888-.229,1.834-.252,2.84c0,0-.124,4.217,1.926,6.293Z" fill="#fff"/><path d="M205.36,326.291c0,0,7.859,9.482,25.657-1.896c0,0,11.016-7.349,5.517-20.15c0,0-11.424-8.516-20.432-19.311s-20.15-25.492-29.395-44.931l-2.357-1.426c0,0,1.699,9.218,12.702,24.751c11.003,15.534,31.3,41.54,31.3,41.54l3.104,3.74c1.782,2.147,2.394,5.096,1.41,7.707-1.402,3.718-5.515,8.122-17,8.79l-7.172-11.135c0,.001-6.964,5.768-3.334,12.321Z" fill="#f4e7bd"/><path d="M222.744,292.153c0,0-20.627-21.509-35.087-55.556c0,0-2.608-4.145-4.267-6.058c0-.001,12.57,38.854,39.354,61.614Z" fill="#fff"/></g><path d="M184.807,285.911c4.34-7.827,13.717-13.004,22.644-12.556c3.177.159,3.168-3.792,0-3.951-10.587-.531-21.083,4.753-26.217,14.015c0-.001,2.03,5.275,3.573,2.492v0Z" fill="#f0c64b"/></g></g></g><g><path d="M152.851,300.299h-40.483c-5.367,0-9.758-4.391-9.758-9.758v-21.083c0-5.367,4.391-9.758,9.758-9.758h40.483c5.367,0,9.758,4.391,9.758,9.758v21.083c0,5.367-4.391,9.758-9.758,9.758Z" fill="#050547"/><polygon points="126.17,280 126.17,272.565 132.61,276.282 139.049,280 132.61,283.718 126.17,287.435" fill="#d5cbfb"/></g><g><g><g><path d="M120.888,210.758c0-12.396-10.049-22.444-22.444-22.444s-22.444,10.048-22.444,22.444c0,8.984,5.28,16.731,12.905,20.317v7.158h19.079v-7.158c7.624-3.586,12.904-11.333,12.904-20.317Z" fill="#fff"/><path d="M108.598,241.932h-20.308c-1.018,0-1.85-.832-1.85-1.85v0c0-1.018.832-1.85,1.85-1.85h20.309c1.017,0,1.85.832,1.85,1.85v0c-.001,1.018-.833,1.85-1.851,1.85Z" fill="#f0c64b"/><path d="M98.444,252.43v0c-4.098,0-7.42-3.322-7.42-7.42v-1.227h14.841v1.227c-.001,4.098-3.323,7.42-7.421,7.42Z" fill="#f0c64b"/><path d="M108.598,245.632h-20.308c-1.018,0-1.85-.833-1.85-1.85v0c0-1.017.832-1.85,1.85-1.85h20.309c1.017,0,1.85.832,1.85,1.85v0c-.001,1.018-.833,1.85-1.851,1.85Z" fill="#d8a32b"/></g><path d="M100.485,238.233h-1.052v-31.18c0-.545-.444-.989-.989-.989-.546,0-.99.444-.99.989v31.18h-1.052v-31.18c0-1.126.916-2.041,2.042-2.041s2.041.915,2.041,2.041v31.18Z" fill="#f0c64b"/></g><g><path d="M63.167,203.106l-.616,3.212l9.381,1.798c.126-1.096.318-2.171.572-3.223l-9.337-1.787Z" fill="#7b70ee"/><path d="M70.598,188.314l-1.978,2.609l7.482,5.664c.599-.915,1.253-1.792,1.957-2.624l-7.461-5.649Z" fill="#7b70ee"/><path d="M83.713,178.323l-2.922,1.471l4.206,8.338c.939-.549,1.912-1.045,2.919-1.478l-4.203-8.331Z" fill="#7b70ee"/><path d="M134.337,206.318l-.616-3.212-9.338,1.787c.254,1.051.447,2.127.572,3.223l9.382-1.798Z" fill="#7b70ee"/><path d="M128.267,190.923l-1.978-2.609-7.461,5.649c.704.833,1.357,1.709,1.957,2.624l7.482-5.664Z" fill="#7b70ee"/><path d="M116.097,179.794l-2.922-1.471-4.204,8.332c1.007.433,1.98.929,2.919,1.478l4.207-8.339Z" fill="#7b70ee"/><path d="M100.116,184.552l-.081-9.492-3.273.03.082,9.456c.53-.031,1.062-.052,1.599-.052.563.001,1.12.024,1.673.058Z" fill="#7b70ee"/></g></g><g><g><g><rect width="94.85" height="18.701" rx="0" ry="0" transform="translate(335.124 382.176)" fill="#f0c64b"/></g><g><g><rect width="3.82" height="18.701" rx="0" ry="0" transform="translate(340.462 382.176)" fill="#d8a32b"/><rect width="3.821" height="18.701" rx="0" ry="0" transform="translate(346.196 382.176)" fill="#d8a32b"/></g><g><rect width="3.821" height="18.701" rx="0" ry="0" transform="translate(415.081 382.176)" fill="#d8a32b"/><rect width="3.821" height="18.701" rx="0" ry="0" transform="translate(420.814 382.176)" fill="#d8a32b"/></g></g></g><g><g><path d="M439.1,371.755v-2.877c0-4.089-3.327-7.415-7.415-7.415h-84.536v17.708h84.536c4.088,0,7.415-3.327,7.415-7.416Z" fill="#fff"/><path d="M431.684,358.347h-85.089v1.558v1.558h85.089c4.089,0,7.415,3.327,7.415,7.415v2.877c0,4.089-3.327,7.415-7.415,7.415h-85.089v1.558v1.558h85.089c5.807,0,10.531-4.724,10.531-10.531v-2.877c0-5.807-4.724-10.531-10.531-10.531Z" fill="#2525ad"/></g><g><rect width="86.192" height="1.417" rx="0" ry="0" transform="translate(347.148 365.427)" fill="#f5f5ff"/><rect width="86.192" height="1.417" rx="0" ry="0" transform="translate(347.148 369.695)" fill="#f5f5ff"/><rect width="86.192" height="1.417" rx="0" ry="0" transform="translate(347.148 373.963)" fill="#f5f5ff"/></g></g><g><g><path d="M339.902,348.975v-2.591c0-3.682,2.995-6.677,6.677-6.677h76.12v15.945h-76.12c-3.681,0-6.677-2.995-6.677-6.677Z" fill="#fff"/><path d="M346.579,336.901h76.618v1.403v1.403h-76.618c-3.682,0-6.677,2.995-6.677,6.677v2.591c0,3.682,2.995,6.677,6.677,6.677h76.618v1.403v1.403h-76.618c-5.229,0-9.483-4.254-9.483-9.483v-2.591c0-5.229,4.254-9.483,9.483-9.483Z" fill="#f0c64b"/></g><g><rect width="77.611" height="1.276" rx="0" ry="0" transform="matrix(-1 0 0-1 422.699 344.552)" fill="#f5f5ff"/><rect width="77.611" height="1.276" rx="0" ry="0" transform="matrix(-1 0 0-1 422.699 348.395)" fill="#f5f5ff"/><rect width="77.611" height="1.276" rx="0" ry="0" transform="matrix(-1 0 0-1 422.699 352.238)" fill="#f5f5ff"/></g></g></g><g><g><g><g><path d="M186.959,138.065v0c3.583,0,6.487,2.816,6.487,6.289v.957c1.305,3.671,2.099,8.449,2.099,13.688s-.795,10.016-2.099,13.688v.957c0,3.473-2.904,6.289-6.487,6.289v0c-4.742,0-8.586-9.372-8.586-20.934-.001-11.562,3.844-20.934,8.586-20.934Z" fill="#f0c64b"/><path d="M181.29,159.265c0,7.072.548,12.806,1.223,12.806.676,0,1.223-5.733,1.223-12.806c0-7.072-.548-12.806-1.223-12.806-.675.001-1.223,5.734-1.223,12.806Z" fill="#d8a32b"/></g><g><path d="M202.529,149.513v.839v17.827.839c-.442,4.826-4.881,9.299-10.831,10.915v-11.754-17.827-11.754c5.95,1.616,10.389,6.089,10.831,10.915Z" fill="#7b70ee"/></g><path d="M191.698,182.173v0c.969,0,1.761-.768,1.761-1.707v-42.401c0-.939-.793-1.708-1.761-1.708v0c-.969,0-1.761.768-1.761,1.708v42.401c-.001.939.792,1.707,1.761,1.707Z" fill="#2525ad"/></g><g><g><path d="M153.26,138.065v0c-3.583,0-6.487,2.816-6.487,6.289v.957c-1.305,3.671-2.099,8.449-2.099,13.688s.795,10.016,2.099,13.688v.957c0,3.473,2.904,6.289,6.487,6.289v0c4.742,0,8.586-9.372,8.586-20.934s-3.844-20.934-8.586-20.934Z" fill="#f0c64b"/><path d="M158.928,159.265c0,7.072-.548,12.806-1.223,12.806s-1.223-5.733-1.223-12.806c0-7.072.548-12.806,1.223-12.806.675.001,1.223,5.734,1.223,12.806Z" fill="#d8a32b"/></g><g><path d="M137.689,149.513v.839v17.827.839c.442,4.826,4.881,9.299,10.831,10.915v-11.754-17.827-11.754c-5.95,1.616-10.389,6.089-10.831,10.915Z" fill="#7b70ee"/></g><path d="M148.521,182.173v0c-.969,0-1.761-.768-1.761-1.707v-42.401c0-.939.792-1.708,1.761-1.708v0c.969,0,1.761.768,1.761,1.708v42.401c0,.939-.793,1.707-1.761,1.707Z" fill="#2525ad"/></g></g><g><path d="M191.864,112.261c-3.519-2.905-8.134-4.744-12.511-5.818-4.494-1.103-9.188-1.385-13.783-.852-1.387.161-2.768.378-4.134.666-.935.197-1.962.351-2.829.762-.906.43-1.794.904-2.69,1.356-2.426,1.223-4.853,2.446-7.279,3.669-.966.487-.852,1.9,0,2.416c2.243,1.36,4.812,1.534,7.352,1.129c1.786-.285,3.417-.948,5.112-1.535c3.045-1.055,6.335-1.571,9.551-1.586c2.867-.013,5.775.416,8.424,1.549c3.919,1.688,8.607,2.811,12.504.443.708-.432.999-1.608.283-2.199Z" fill="#7b70ee"/><path d="M170.715,104.035l.006-.031c-.205,0-.407.012-.612.015-.204-.003-.406-.015-.612-.015l.006.031c-20.204.644-36.388,17.214-36.388,37.574v22.818c0,2.534,2.054,4.589,4.589,4.589v-22.496l-.099-.585c-1.546-9.123.431-18.618,5.997-26.009c2.6-3.452,6.122-6.703,10.89-9.052.057-.028.113-.055.17-.083c9.715-4.736,21.18-4.736,30.895,0c.057.028.113.055.17.083c4.797,2.363,8.332,5.639,10.936,9.113c5.534,7.385,7.493,16.856,5.95,25.954l-.098.58v22.496c2.534,0,4.589-2.054,4.589-4.589v-22.818c-.001-20.361-16.185-36.931-36.389-37.575Z" fill="#2525ad"/></g></g><g><g><rect width="59.667" height="86.288" rx="0" ry="0" transform="translate(388.473 185.82)" fill="#d5cbfb"/><g><rect width="46.786" height="1.91" rx="0" ry="0" transform="translate(394.913 198.476)" fill="#7b70ee"/><rect width="46.786" height="1.91" rx="0" ry="0" transform="translate(394.913 207.243)" fill="#7b70ee"/><rect width="46.786" height="1.91" rx="0" ry="0" transform="translate(394.913 216.011)" fill="#7b70ee"/><rect width="46.786" height="1.91" rx="0" ry="0" transform="translate(394.913 224.778)" fill="#7b70ee"/><rect width="46.786" height="1.91" rx="0" ry="0" transform="translate(394.913 233.545)" fill="#7b70ee"/><rect width="46.786" height="1.91" rx="0" ry="0" transform="translate(394.913 242.313)" fill="#7b70ee"/></g><rect width="46.786" height="0.526" rx="0" ry="0" transform="translate(394.914 263.61)" fill="#fff"/><path d="M401.306,255.324c2.39.402,4.817.522,7.233.312c2.232-.194,4.602-.57,6.684-1.428c1.482-.611,3.097-2.285,2.057-3.977-.916-1.491-3.215-1.643-4.738-1.281-1.776.423-3.356,1.586-4.436,3.038-1.081,1.453-1.833,3.548-.554,5.12c1.182,1.452,3.346,1.743,5.089,1.501.979-.136,1.933-.46,2.79-.956.4-.232.771-.506,1.126-.801.464-.384.951-.894,1.578-.981.753-.105.926.465,1.405.875.333.285.761.381,1.19.338.529-.054,1.01-.282,1.5-.471.617-.239,1.227-.328,1.888-.313c2.846.068,5.715.446,8.552.677.506.041.504-.432,0-.473-2.112-.172-4.225-.659-6.337-.83-.964-.078-1.955-.226-2.923-.147-.91.075-1.641.547-2.512.734-.979.209-1.114-.775-1.898-1.077-.696-.267-1.462-.042-2.057.356-.726.485-1.317,1.117-2.093,1.536-.87.469-1.852.751-2.839.811-1.6.097-3.982-.391-4.319-2.284-.308-1.727,1.125-3.51,2.373-4.529c1.282-1.047,3.012-1.74,4.683-1.434.795.146,1.833.52,2.028,1.412.227,1.041-.693,1.881-1.528,2.29-.975.478-2.102.722-3.156.957-1.17.261-2.355.445-3.55.549-2.343.203-4.704.317-7.023-.074-.5-.084-.714.466-.213.55v0Z" fill="#7b70ee"/></g><g><path d="M468.084,238.197l-10.489-5.691l3.083-5.683c.667-1.23,2.205-1.686,3.435-1.019l6.035,3.275c1.23.667,1.686,2.205,1.019,3.435l-3.083,5.683Z" fill="#d5cbfb"/><rect width="11.934" height="63.528" rx="0" ry="0" transform="matrix(.8789 0.4769-.4769 0.8789 456.855348 233.825734)" fill="#2525ad"/><rect width="4.262" height="63.528" rx="0" ry="0" transform="matrix(.8789 0.4769-.4769 0.8789 460.220807 235.658122)" fill="#1c1c84"/><rect width="14.775" height="2.856" rx="0" ry="0" transform="matrix(.8789 0.4769-.4769 0.8789 456.966134 230.639142)" fill="#f0c64b"/><g><polygon points="437.056,295.378 426.567,289.687 425.503,299.203 429.658,301.458" fill="#d5cbfb"/><polygon points="429.658,301.458 425.503,299.203 424.805,305.445" fill="#2525ad"/></g></g></g><g><g><line x1="92.965" y1="141.242" x2="103.698" y2="151.975" fill="none" stroke="#7b70ee" stroke-width="2.1457" stroke-miterlimit="10"/><line x1="103.914" y1="141.242" x2="93.181" y2="151.975" fill="none" stroke="#7b70ee" stroke-width="2.1457" stroke-miterlimit="10"/></g><g id="eFMJmc5TkAW270" opacity="0"><line x1="454.037" y1="302.228" x2="464.77" y2="312.961" fill="none" stroke="#7b70ee" stroke-width="2.1457" stroke-miterlimit="10"/><line x1="464.985" y1="302.228" x2="454.252" y2="312.961" fill="none" stroke="#7b70ee" stroke-width="2.1457" stroke-miterlimit="10"/></g><g id="eFMJmc5TkAW273" opacity="0"><line x1="62.68" y1="264.615" x2="72.185" y2="274.119" fill="none" stroke="#2525ad" stroke-width="1.9001" stroke-miterlimit="10"/><line x1="72.375" y1="264.615" x2="62.871" y2="274.119" fill="none" stroke="#2525ad" stroke-width="1.9001" stroke-miterlimit="10"/></g><path d="M57.644,185.82c0,4.29-3.478,7.768-7.768,7.768s-7.768-3.478-7.768-7.768s3.478-7.768,7.768-7.768c4.29-.001,7.768,3.477,7.768,7.768Z" fill="none" stroke="#7b70ee" stroke-width="2.1457" stroke-miterlimit="10"/><circle r="7.768" transform="translate(361.634 172.071)" fill="none" stroke="#7b70ee" stroke-width="2.1457" stroke-miterlimit="10"/><path d="M397.072,161.239c0,1.09-.884,1.974-1.974,1.974s-1.974-.884-1.974-1.974.884-1.974,1.974-1.974s1.974.884,1.974,1.974Z" fill="none" stroke="#2525ad" stroke-width="1.9001" stroke-miterlimit="10"/><path d="M206.724,95.422c0,1.09-.884,1.974-1.974,1.974s-1.974-.884-1.974-1.974.884-1.974,1.974-1.974s1.974.884,1.974,1.974Z" fill="none" stroke="#2525ad" stroke-width="1.9001" stroke-miterlimit="10"/></g><g><path d="M80.768,345.921v4.668c-6.272.353-11.27,5.553-11.27,11.912v3.972c0,6.516,5.246,11.821,11.734,11.935c2.356,12.782,13.55,22.469,27.014,22.469v0c15.176,0,27.478-12.302,27.478-27.478v-27.478h-54.956Zm-7.409,20.551v-3.972c0-4.23,3.267-7.706,7.409-8.051v18.949c0,.378.013.752.028,1.126-4.155-.331-7.437-3.812-7.437-8.052Z" fill="#050547"/><g><path id="eFMJmc5TkAW283" d="M122.036,314.64c-3.496-1.803-8.089-.953-10.899,1.8-.504-4.01-4.315-7.04-8.311-7.638-3.997-.598-8.052.803-11.559,2.812-3.439,1.97-6.65,4.703-8.091,8.395s-.634,8.451,2.631,10.697c1.326.912,3.016,1.169,4.603.903.209,1.256.706,2.454,1.523,3.447c2.723,3.311,8.345,3.638,11.434.666c2.344,2.074,5.942,2.598,8.78,1.278.617-.287,1.188-.662,1.707-1.099-.209,2.751-1.254,5.444-3.014,7.572c3.409-1.186,6.324-3.728,7.962-6.945c1.074-2.109,1.579-4.492,1.512-6.856c2.654-.511,5.089-2.453,5.953-5.051c1.243-3.734-.734-8.179-4.231-9.981Z" transform="matrix(0 0 0 0 104.565071 326.067886)" opacity="0" fill="#d5cbfb"/></g></g><g><path d="M245.356,149.694l-.005-.001c-.142-.012-.29-.019-.44-.019-2.924,0-5.303,2.379-5.303,5.303s2.379,5.303,5.303,5.303c.15,0,.296-.006.433-.018c2.733-.225,4.87-2.546,4.87-5.285c0-2.738-2.134-5.059-4.858-5.283Z" fill="#2525ad"/><path id="eFMJmc5TkAW286" d="M263.94,154.978c0-.916-.357-1.777-1.006-2.426-.648-.648-1.51-1.005-2.426-1.005h-1.964l-.202-.664c-.263-.866-.613-1.709-1.038-2.506l-.327-.612l1.39-1.39c1.338-1.338,1.338-3.515,0-4.853-.648-.648-1.51-1.005-2.427-1.005s-1.778.357-2.426,1.004l-1.39,1.39-.612-.327c-.797-.426-1.64-.775-2.506-1.038l-.663-.202v-1.964c0-1.625-1.156-3.04-2.748-3.363-.224-.045-.455-.068-.683-.068-.916,0-1.778.357-2.426,1.005-.648.649-1.005,1.51-1.005,2.426v1.964l-.663.202c-.866.263-1.709.613-2.506,1.038l-.612.327-1.39-1.39c-1.337-1.337-3.515-1.337-4.853,0-.647.648-1.004,1.51-1.004,2.427s.357,1.778,1.005,2.426l1.39,1.39-.327.612c-.426.797-.775,1.64-1.039,2.506l-.202.664h-1.964c-1.892,0-3.431,1.539-3.431,3.431c0,.916.357,1.778,1.005,2.426s1.51,1.005,2.426,1.005h1.964l.202.663c.264.866.613,1.709,1.039,2.506l.327.612-1.39,1.39c-1.338,1.338-1.338,3.515,0,4.853.648.647,1.509,1.004,2.427,1.004.917,0,1.778-.357,2.426-1.005l1.39-1.39.612.327c.797.426,1.64.775,2.506,1.039l.663.202v1.964c0,1.892,1.539,3.431,3.431,3.431.222,0,.447-.022.667-.065l.105-.022c.626-.144,1.196-.46,1.654-.918.648-.649,1.005-1.51,1.005-2.426v-1.964l.663-.202c.866-.263,1.709-.613,2.506-1.039l.612-.327l1.39,1.391c.646.646,1.508,1.002,2.426,1.002s1.78-.356,2.427-1.003c.647-.648,1.004-1.51,1.004-2.427c0-.916-.357-1.778-1.005-2.426l-1.39-1.389.327-.612c.426-.797.775-1.641,1.039-2.506l.202-.663h1.964c1.891.001,3.431-1.538,3.431-3.43Zm-11.93,6.566c-1.648,1.781-3.884,2.872-6.296,3.07-.258.022-.53.034-.803.034-5.332,0-9.67-4.338-9.67-9.67s4.338-9.67,9.67-9.67c.274,0,.548.012.814.035c2.403.197,4.637,1.287,6.286,3.069c1.658,1.792,2.571,4.124,2.571,6.567-.001,2.442-.914,4.774-2.572,6.565Z" fill="#5e5e60"/></g><g><path d="M392.188,304.376l-.002.003c-.041.084-.079.172-.115.263-.686,1.781.205,3.789,1.987,4.474c1.781.686,3.789-.206,4.474-1.987.035-.091.065-.181.09-.268.504-1.718-.409-3.564-2.077-4.206-1.667-.642-3.582.114-4.357,1.721Z" fill="#5e5e60"/><path id="eFMJmc5TkAW289" d="M399.765,294.294c-.558-.215-1.167-.199-1.714.043-.547.243-.966.684-1.181,1.242l-.461,1.197-.452-.033c-.589-.043-1.185-.027-1.77.045l-.449.056-.521-1.173c-.501-1.129-1.827-1.639-2.956-1.138-.547.243-.966.684-1.181,1.243-.215.558-.2,1.167.043,1.713l.521,1.173-.343.296c-.446.386-.857.817-1.22,1.283l-.279.357-1.197-.461c-.99-.381-2.123-.009-2.693.885-.08.126-.148.261-.202.4-.215.558-.199,1.167.043,1.714.243.547.684.967,1.242,1.181l1.197.461-.033.452c-.043.589-.027,1.185.045,1.77l.056.45-1.173.521c-1.128.501-1.639,1.827-1.138,2.956.243.546.684.966,1.243,1.181.558.215,1.167.2,1.714-.043l1.173-.521.296.343c.385.446.817.857,1.283,1.22l.357.279-.461,1.197c-.444,1.153.133,2.451,1.286,2.895.558.215,1.167.199,1.714-.043.547-.243.966-.684,1.181-1.242l.461-1.197.452.033c.589.043,1.185.027,1.77-.045l.449-.056.521,1.173c.501,1.129,1.827,1.639,2.956,1.138.546-.243.966-.684,1.181-1.243.215-.558.2-1.167-.043-1.714l-.521-1.173.343-.296c.446-.386.857-.817,1.22-1.283l.279-.357l1.197.461c1.153.444,2.451-.133,2.895-1.286.052-.135.091-.277.117-.422l.011-.069c.059-.415,0-.837-.172-1.223-.243-.547-.684-.967-1.242-1.181l-1.197-.461.033-.452c.042-.589.027-1.185-.045-1.77l-.056-.45l1.173-.521c.545-.242.964-.684,1.18-1.243.215-.559.2-1.168-.042-1.714-.243-.546-.684-.966-1.243-1.181-.558-.215-1.167-.2-1.714.043l-1.172.521-.296-.343c-.386-.446-.818-.857-1.283-1.22l-.357-.279.461-1.197c.443-1.149-.133-2.448-1.286-2.892Zm1.203,8.808c.699,1.422.838,3.04.394,4.556-.047.163-.104.331-.168.497-1.251,3.248-4.911,4.874-8.159,3.623s-4.874-4.911-3.623-8.159c.064-.167.136-.331.212-.487.684-1.418,1.872-2.523,3.344-3.109c1.48-.59,3.115-.599,4.603-.026c1.488.571,2.694,1.675,3.397,3.105Z" fill="#5e5e60"/></g></g></g>
<script><![CDATA[
!function(t,n){"object"==typeof exports&&"undefined"!=typeof module?module.exports=n():"function"==typeof __SVGATOR_DEFINE__&&__SVGATOR_DEFINE__.amd?__SVGATOR_DEFINE__(n):((t="undefined"!=typeof globalThis?globalThis:t||self).__SVGATOR_PLAYER__=t.__SVGATOR_PLAYER__||{},t.__SVGATOR_PLAYER__["5c7f360c"]=n())}(this,(function(){"use strict";function t(t,n){var e=Object.keys(t);if(Object.getOwnPropertySymbols){var r=Object.getOwnPropertySymbols(t);n&&(r=r.filter((function(n){return Object.getOwnPropertyDescriptor(t,n).enumerable}))),e.push.apply(e,r)}return e}function n(n){for(var e=1;e<arguments.length;e++){var r=null!=arguments[e]?arguments[e]:{};e%2?t(Object(r),!0).forEach((function(t){u(n,t,r[t])})):Object.getOwnPropertyDescriptors?Object.defineProperties(n,Object.getOwnPropertyDescriptors(r)):t(Object(r)).forEach((function(t){Object.defineProperty(n,t,Object.getOwnPropertyDescriptor(r,t))}))}return n}function e(t){return(e="function"==typeof Symbol&&"symbol"==typeof Symbol.iterator?function(t){return typeof t}:function(t){return t&&"function"==typeof Symbol&&t.constructor===Symbol&&t!==Symbol.prototype?"symbol":typeof t})(t)}function r(t,n){if(!(t instanceof n))throw new TypeError("Cannot call a class as a function")}function i(t,n){for(var e=0;e<n.length;e++){var r=n[e];r.enumerable=r.enumerable||!1,r.configurable=!0,"value"in r&&(r.writable=!0),Object.defineProperty(t,r.key,r)}}function o(t,n,e){return n&&i(t.prototype,n),e&&i(t,e),t}function u(t,n,e){return n in t?Object.defineProperty(t,n,{value:e,enumerable:!0,configurable:!0,writable:!0}):t[n]=e,t}function a(t){return(a=Object.setPrototypeOf?Object.getPrototypeOf:function(t){return t.__proto__||Object.getPrototypeOf(t)})(t)}function l(t,n){return(l=Object.setPrototypeOf||function(t,n){return t.__proto__=n,t})(t,n)}function s(){if("undefined"==typeof Reflect||!Reflect.construct)return!1;if(Reflect.construct.sham)return!1;if("function"==typeof Proxy)return!0;try{return Boolean.prototype.valueOf.call(Reflect.construct(Boolean,[],(function(){}))),!0}catch(t){return!1}}function f(t,n,e){return(f=s()?Reflect.construct:function(t,n,e){var r=[null];r.push.apply(r,n);var i=new(Function.bind.apply(t,r));return e&&l(i,e.prototype),i}).apply(null,arguments)}function c(t,n){if(n&&("object"==typeof n||"function"==typeof n))return n;if(void 0!==n)throw new TypeError("Derived constructors may only return object or undefined");return function(t){if(void 0===t)throw new ReferenceError("this hasn't been initialised - super() hasn't been called");return t}(t)}function h(t,n,e){return(h="undefined"!=typeof Reflect&&Reflect.get?Reflect.get:function(t,n,e){var r=function(t,n){for(;!Object.prototype.hasOwnProperty.call(t,n)&&null!==(t=a(t)););return t}(t,n);if(r){var i=Object.getOwnPropertyDescriptor(r,n);return i.get?i.get.call(e):i.value}})(t,n,e||t)}function v(t){return function(t){if(Array.isArray(t))return y(t)}(t)||function(t){if("undefined"!=typeof Symbol&&null!=t[Symbol.iterator]||null!=t["@@iterator"])return Array.from(t)}(t)||function(t,n){if(!t)return;if("string"==typeof t)return y(t,n);var e=Object.prototype.toString.call(t).slice(8,-1);"Object"===e&&t.constructor&&(e=t.constructor.name);if("Map"===e||"Set"===e)return Array.from(t);if("Arguments"===e||/^(?:Ui|I)nt(?:8|16|32)(?:Clamped)?Array$/.test(e))return y(t,n)}(t)||function(){throw new TypeError("Invalid attempt to spread non-iterable instance.\nIn order to be iterable, non-array objects must have a [Symbol.iterator]() method.")}()}function y(t,n){(null==n||n>t.length)&&(n=t.length);for(var e=0,r=new Array(n);e<n;e++)r[e]=t[e];return r}function g(t,n,e){if(Number.isInteger(t))return t;var r=Math.pow(10,n);return Math[e]((+t+Number.EPSILON)*r)/r}Number.isInteger||(Number.isInteger=function(t){return"number"==typeof t&&isFinite(t)&&Math.floor(t)===t}),Number.EPSILON||(Number.EPSILON=2220446049250313e-31);var d=p(Math.pow(10,-6));function p(t){var n=arguments.length>1&&void 0!==arguments[1]?arguments[1]:6;return g(t,n,"round")}function m(t,n){var e=arguments.length>2&&void 0!==arguments[2]?arguments[2]:d;return Math.abs(t-n)<e}p(Math.pow(10,-2)),p(Math.pow(10,-4));var b=Math.PI/180;function w(t){return t}function A(t,n,e){var r=1-e;return 3*e*r*(t*r+n*e)+e*e*e}function _(){var t=arguments.length>0&&void 0!==arguments[0]?arguments[0]:0,n=arguments.length>1&&void 0!==arguments[1]?arguments[1]:0,e=arguments.length>2&&void 0!==arguments[2]?arguments[2]:1,r=arguments.length>3&&void 0!==arguments[3]?arguments[3]:1;return t<0||t>1||e<0||e>1?null:m(t,n)&&m(e,r)?w:function(i){if(i<=0)return t>0?i*n/t:0===n&&e>0?i*r/e:0;if(i>=1)return e<1?1+(i-1)*(r-1)/(e-1):1===e&&t<1?1+(i-1)*(n-1)/(t-1):1;for(var o,u=0,a=1;u<a;){var l=A(t,e,o=(u+a)/2);if(m(i,l))break;l<i?u=o:a=o}return A(n,r,o)}}function x(){return 1}function k(t){return 1===t?1:0}function S(){var t=arguments.length>0&&void 0!==arguments[0]?arguments[0]:1,n=arguments.length>1&&void 0!==arguments[1]?arguments[1]:0;if(1===t){if(0===n)return k;if(1===n)return x}var e=1/t;return function(t){return t>=1?1:(t+=n*e)-t%e}}var O=Math.sin,j=Math.cos,M=Math.acos,E=Math.asin,P=Math.tan,I=Math.atan2,R=Math.PI/180,F=180/Math.PI,N=Math.sqrt,T=function(){function t(){var n=arguments.length>0&&void 0!==arguments[0]?arguments[0]:1,e=arguments.length>1&&void 0!==arguments[1]?arguments[1]:0,i=arguments.length>2&&void 0!==arguments[2]?arguments[2]:0,o=arguments.length>3&&void 0!==arguments[3]?arguments[3]:1,u=arguments.length>4&&void 0!==arguments[4]?arguments[4]:0,a=arguments.length>5&&void 0!==arguments[5]?arguments[5]:0;r(this,t),this.m=[n,e,i,o,u,a],this.i=null,this.w=null,this.s=null}return o(t,[{key:"determinant",get:function(){var t=this.m;return t[0]*t[3]-t[1]*t[2]}},{key:"isIdentity",get:function(){if(null===this.i){var t=this.m;this.i=1===t[0]&&0===t[1]&&0===t[2]&&1===t[3]&&0===t[4]&&0===t[5]}return this.i}},{key:"point",value:function(t,n){var e=this.m;return{x:e[0]*t+e[2]*n+e[4],y:e[1]*t+e[3]*n+e[5]}}},{key:"translateSelf",value:function(){var t=arguments.length>0&&void 0!==arguments[0]?arguments[0]:0,n=arguments.length>1&&void 0!==arguments[1]?arguments[1]:0;if(!t&&!n)return this;var e=this.m;return e[4]+=e[0]*t+e[2]*n,e[5]+=e[1]*t+e[3]*n,this.w=this.s=this.i=null,this}},{key:"rotateSelf",value:function(){var t=arguments.length>0&&void 0!==arguments[0]?arguments[0]:0;if(t%=360){var n=O(t*=R),e=j(t),r=this.m,i=r[0],o=r[1];r[0]=i*e+r[2]*n,r[1]=o*e+r[3]*n,r[2]=r[2]*e-i*n,r[3]=r[3]*e-o*n,this.w=this.s=this.i=null}return this}},{key:"scaleSelf",value:function(){var t=arguments.length>0&&void 0!==arguments[0]?arguments[0]:1,n=arguments.length>1&&void 0!==arguments[1]?arguments[1]:1;if(1!==t||1!==n){var e=this.m;e[0]*=t,e[1]*=t,e[2]*=n,e[3]*=n,this.w=this.s=this.i=null}return this}},{key:"skewSelf",value:function(t,n){if(n%=360,(t%=360)||n){var e=this.m,r=e[0],i=e[1],o=e[2],u=e[3];t&&(t=P(t*R),e[2]+=r*t,e[3]+=i*t),n&&(n=P(n*R),e[0]+=o*n,e[1]+=u*n),this.w=this.s=this.i=null}return this}},{key:"resetSelf",value:function(){var t=arguments.length>0&&void 0!==arguments[0]?arguments[0]:1,n=arguments.length>1&&void 0!==arguments[1]?arguments[1]:0,e=arguments.length>2&&void 0!==arguments[2]?arguments[2]:0,r=arguments.length>3&&void 0!==arguments[3]?arguments[3]:1,i=arguments.length>4&&void 0!==arguments[4]?arguments[4]:0,o=arguments.length>5&&void 0!==arguments[5]?arguments[5]:0,u=this.m;return u[0]=t,u[1]=n,u[2]=e,u[3]=r,u[4]=i,u[5]=o,this.w=this.s=this.i=null,this}},{key:"recomposeSelf",value:function(){var t=arguments.length>0&&void 0!==arguments[0]?arguments[0]:null,n=arguments.length>1&&void 0!==arguments[1]?arguments[1]:null,e=arguments.length>2&&void 0!==arguments[2]?arguments[2]:null,r=arguments.length>3&&void 0!==arguments[3]?arguments[3]:null,i=arguments.length>4&&void 0!==arguments[4]?arguments[4]:null;return this.isIdentity||this.resetSelf(),t&&(t.x||t.y)&&this.translateSelf(t.x,t.y),n&&this.rotateSelf(n),e&&(e.x&&this.skewSelf(e.x,0),e.y&&this.skewSelf(0,e.y)),!r||1===r.x&&1===r.y||this.scaleSelf(r.x,r.y),i&&(i.x||i.y)&&this.translateSelf(i.x,i.y),this}},{key:"decompose",value:function(){var t=arguments.length>0&&void 0!==arguments[0]?arguments[0]:0,n=arguments.length>1&&void 0!==arguments[1]?arguments[1]:0,e=this.m,r=e[0]*e[0]+e[1]*e[1],i=[[e[0],e[1]],[e[2],e[3]]],o=N(r);if(0===o)return{origin:{x:p(e[4]),y:p(e[5])},translate:{x:p(t),y:p(n)},scale:{x:0,y:0},skew:{x:0,y:0},rotate:0};i[0][0]/=o,i[0][1]/=o;var u=e[0]*e[3]-e[1]*e[2]<0;u&&(o=-o);var a=i[0][0]*i[1][0]+i[0][1]*i[1][1];i[1][0]-=i[0][0]*a,i[1][1]-=i[0][1]*a;var l=N(i[1][0]*i[1][0]+i[1][1]*i[1][1]);if(0===l)return{origin:{x:p(e[4]),y:p(e[5])},translate:{x:p(t),y:p(n)},scale:{x:p(o),y:0},skew:{x:0,y:0},rotate:0};i[1][0]/=l,i[1][1]/=l,a/=l;var s=0;return i[1][1]<0?(s=M(i[1][1])*F,i[0][1]<0&&(s=360-s)):s=E(i[0][1])*F,u&&(s=-s),a=I(a,N(i[0][0]*i[0][0]+i[0][1]*i[0][1]))*F,u&&(a=-a),{origin:{x:p(e[4]),y:p(e[5])},translate:{x:p(t),y:p(n)},scale:{x:p(o),y:p(l)},skew:{x:p(a),y:0},rotate:p(s)}}},{key:"clone",value:function(){var t=this.m;return new this.constructor(t[0],t[1],t[2],t[3],t[4],t[5])}},{key:"toString",value:function(){var t=arguments.length>0&&void 0!==arguments[0]?arguments[0]:" ";if(null===this.s){var n=this.m.map((function(t){return p(t)}));1===n[0]&&0===n[1]&&0===n[2]&&1===n[3]?this.s="translate("+n[4]+t+n[5]+")":this.s="matrix("+n.join(t)+")"}return this.s}}],[{key:"create",value:function(t){return t?Array.isArray(t)?f(this,v(t)):t instanceof this?t.clone():(new this).recomposeSelf(t.origin,t.rotate,t.skew,t.scale,t.translate):new this}}]),t}();function q(t,n,e){return t>=.5?e:n}function B(t,n,e){return 0===t||n===e?n:t*(e-n)+n}function D(t,n,e){var r=B(t,n,e);return r<=0?0:r}function L(t,n,e){var r=B(t,n,e);return r<=0?0:r>=1?1:r}function C(t,n,e){return 0===t?n:1===t?e:{x:B(t,n.x,e.x),y:B(t,n.y,e.y)}}function V(t,n,e){var r=function(t,n,e){return Math.round(B(t,n,e))}(t,n,e);return r<=0?0:r>=255?255:r}function G(t,n,e){return 0===t?n:1===t?e:{r:V(t,n.r,e.r),g:V(t,n.g,e.g),b:V(t,n.b,e.b),a:B(t,null==n.a?1:n.a,null==e.a?1:e.a)}}function z(t,n){for(var e=[],r=0;r<t;r++)e.push(n);return e}function Y(t,n){if(--n<=0)return t;var e=(t=Object.assign([],t)).length;do{for(var r=0;r<e;r++)t.push(t[r])}while(--n>0);return t}var $,U=function(){function t(n){r(this,t),this.list=n,this.length=n.length}return o(t,[{key:"setAttribute",value:function(t,n){for(var e=this.list,r=0;r<this.length;r++)e[r].setAttribute(t,n)}},{key:"removeAttribute",value:function(t){for(var n=this.list,e=0;e<this.length;e++)n[e].removeAttribute(t)}},{key:"style",value:function(t,n){for(var e=this.list,r=0;r<this.length;r++)e[r].style[t]=n}}]),t}(),Q=/-./g,H=function(t,n){return n.toUpperCase()};function J(t){return"function"==typeof t?t:q}function Z(t){return t?"function"==typeof t?t:Array.isArray(t)?function(t){var n=arguments.length>1&&void 0!==arguments[1]?arguments[1]:w;if(!Array.isArray(t))return n;switch(t.length){case 1:return S(t[0])||n;case 2:return S(t[0],t[1])||n;case 4:return _(t[0],t[1],t[2],t[3])||n}return n}(t,null):function(t,n){var e=arguments.length>2&&void 0!==arguments[2]?arguments[2]:w;switch(t){case"linear":return w;case"steps":return S(n.steps||1,n.jump||0)||e;case"bezier":case"cubic-bezier":return _(n.x1||0,n.y1||0,n.x2||0,n.y2||0)||e}return e}(t.type,t.value,null):null}function K(t,n,e){var r=arguments.length>3&&void 0!==arguments[3]&&arguments[3],i=n.length-1;if(t<=n[0].t)return r?[0,0,n[0].v]:n[0].v;if(t>=n[i].t)return r?[i,1,n[i].v]:n[i].v;var o,u=n[0],a=null;for(o=1;o<=i;o++){if(!(t>n[o].t)){a=n[o];break}u=n[o]}return null==a?r?[i,1,n[i].v]:n[i].v:u.t===a.t?r?[o,1,a.v]:a.v:(t=(t-u.t)/(a.t-u.t),u.e&&(t=u.e(t)),r?[o,t,e(t,u.v,a.v)]:e(t,u.v,a.v))}function W(t,n){var e=arguments.length>2&&void 0!==arguments[2]?arguments[2]:null;return t&&t.length?"function"!=typeof n?null:("function"!=typeof e&&(e=null),function(r){var i=K(r,t,n);return null!=i&&e&&(i=e(i)),i}):null}function X(t,n){return t.t-n.t}function tt(t,n,r,i,o){var u,a="@"===r[0],l="#"===r[0],s=$[r],f=q;switch(a?(u=r.substr(1),r=u.replace(Q,H)):l&&(r=r.substr(1)),e(s)){case"function":if(f=s(i,o,K,Z,r,a,n,t),l)return f;break;case"string":f=W(i,J(s));break;case"object":if((f=W(i,J(s.i),s.f))&&"function"==typeof s.u)return s.u(n,f,r,a,t)}return f?function(t,n,e){if(arguments.length>3&&void 0!==arguments[3]&&arguments[3])return t instanceof U?function(r){return t.style(n,e(r))}:function(r){return t.style[n]=e(r)};if(Array.isArray(n)){var r=n.length;return function(i){var o=e(i);if(null==o)for(var u=0;u<r;u++)t[u].removeAttribute(n);else for(var a=0;a<r;a++)t[a].setAttribute(n,o)}}return function(r){var i=e(r);null==i?t.removeAttribute(n):t.setAttribute(n,i)}}(n,r,f,a):null}function nt(t,n,r,i){if(!i||"object"!==e(i))return null;var o=null,u=null;return Array.isArray(i)?u=function(t){if(!t||!t.length)return null;for(var n=0;n<t.length;n++)t[n].e&&(t[n].e=Z(t[n].e));return t.sort(X)}(i):(u=i.keys,o=i.data||null),u?tt(t,n,r,u,o):null}function et(t,n,e){if(!e)return null;var r=[];for(var i in e)if(e.hasOwnProperty(i)){var o=nt(t,n,i,e[i]);o&&r.push(o)}return r.length?r:null}function rt(t,n){if(!n.settings.duration||n.settings.duration<0)return null;var e,r,i,o,u,a=function(t,n){if(!n)return null;var e=[];if(Array.isArray(n))for(var r=n.length,i=0;i<r;i++){var o=n[i];if(2===o.length){var u=null;if("string"==typeof o[0])u=t.getElementById(o[0]);else if(Array.isArray(o[0])){u=[];for(var a=0;a<o[0].length;a++)if("string"==typeof o[0][a]){var l=t.getElementById(o[0][a]);l&&u.push(l)}u=u.length?1===u.length?u[0]:new U(u):null}if(u){var s=et(t,u,o[1]);s&&(e=e.concat(s))}}}else for(var f in n)if(n.hasOwnProperty(f)){var c=t.getElementById(f);if(c){var h=et(t,c,n[f]);h&&(e=e.concat(h))}}return e.length?e:null}(t,n.elements);return a?(e=a,r=n.settings,i=r.duration,o=e.length,u=null,function(t,n){var a=r.iterations||1/0,l=(r.alternate&&a%2==0)^r.direction>0?i:0,s=t%i,f=1+(t-s)/i;n*=r.direction,r.alternate&&f%2==0&&(n=-n);var c=!1;if(f>a)s=l,c=!0,-1===r.fill&&(s=r.direction>0?0:i);else if(n<0&&(s=i-s),s===u)return!1;u=s;for(var h=0;h<o;h++)e[h](s);return c}):null}function it(t,n){for(var e=n.querySelectorAll("svg"),r=0;r<e.length;r++)if(e[r].id===t.root&&!e[r].svgatorAnimation)return e[r].svgatorAnimation=!0,e[r];return null}function ot(t){var n=function(t){return t.shadowRoot};return document?Array.from(t.querySelectorAll(":not("+["a","area","audio","br","canvas","circle","datalist","embed","g","head","hr","iframe","img","input","link","object","path","polygon","rect","script","source","style","svg","title","track","video"].join()+")")).filter(n).map(n):[]}function ut(t){var n=arguments.length>1&&void 0!==arguments[1]?arguments[1]:document,e=arguments.length>2&&void 0!==arguments[2]?arguments[2]:0,r=it(t,n);if(r)return r;if(e>=20)return null;for(var i=ot(n),o=0;o<i.length;o++){var u=ut(t,i[o],e+1);if(u)return u}return null}function at(t,n){if($=n,!t||!t.root||!Array.isArray(t.animations))return null;var e=ut(t);if(!e)return null;var r=t.animations.map((function(t){return rt(e,t)})).filter((function(t){return!!t}));return r.length?{svg:e,animations:r,animationSettings:t.animationSettings,options:t.options||void 0}:null}function lt(t){var n=arguments.length>1&&void 0!==arguments[1]?arguments[1]:null,e=arguments.length>2&&void 0!==arguments[2]?arguments[2]:Number,r=arguments.length>3&&void 0!==arguments[3]?arguments[3]:"undefined"!=typeof BigInt&&BigInt,i="0x"+(t.replace(/[^0-9a-fA-F]+/g,"")||27);return n&&r&&e.isSafeInteger&&!e.isSafeInteger(+i)?e(r(i))%n+n:+i}function st(t,n,e){return!t||!e||n>t.length?t:t.substring(0,n)+st(t.substring(n+1),e,e)}function ft(t){var n=arguments.length>1&&void 0!==arguments[1]?arguments[1]:27;return!t||t%n?t%n:[0,1].includes(n)?n:ft(t/n,n)}function ct(t,n,e){if(t&&t.length){var r=lt(e),i=ft(r)+5,o=st(t,ft(r,5),i);return o=o.replace(/\x7c$/g,"==").replace(/\x2f$/g,"="),o=function(t,n,e){var r=+("0x"+t.substring(0,4));t=t.substring(4);for(var i=lt(n,r)%r+e%27,o=[],u=0;u<t.length;u+=2)if("|"!==t[u]){var a=+("0x"+t[u]+t[u+1])-i;o.push(a)}else{var l=+("0x"+t.substring(u+1,u+1+4))-i;u+=3,o.push(l)}return String.fromCharCode.apply(String,o)}(o=(o=atob(o)).replace(/[\x41-\x5A]/g,""),n,r),o=JSON.parse(o)}}var ht=[{key:"alternate",def:!1},{key:"fill",def:1},{key:"iterations",def:0},{key:"direction",def:1},{key:"speed",def:1},{key:"fps",def:100}],vt=function(){function t(n,e){var i=this,o=arguments.length>2&&void 0!==arguments[2]?arguments[2]:null;r(this,t),this._id=0,this._running=!1,this._rollingBack=!1,this._animations=n,this._settings=e,(!o||o<"2022-05-02")&&delete this._settings.speed,ht.forEach((function(t){i._settings[t.key]=i._settings[t.key]||t.def})),this.duration=e.duration,this.offset=e.offset||0,this.rollbackStartOffset=0}return o(t,[{key:"alternate",get:function(){return this._settings.alternate}},{key:"fill",get:function(){return this._settings.fill}},{key:"iterations",get:function(){return this._settings.iterations}},{key:"direction",get:function(){return this._settings.direction}},{key:"speed",get:function(){return this._settings.speed}},{key:"fps",get:function(){return this._settings.fps}},{key:"maxFiniteDuration",get:function(){return this.iterations>0?this.iterations*this.duration:this.duration}},{key:"_apply",value:function(t){for(var n=arguments.length>1&&void 0!==arguments[1]?arguments[1]:{},e=this._animations,r=e.length,i=0,o=0;o<r;o++)n[o]?i++:(n[o]=e[o](t,1),n[o]&&i++);return i}},{key:"_rollback",value:function(t){var n=this,e=1/0,r=null;this.rollbackStartOffset=t,this._rollingBack=!0,this._running=!0;this._id=window.requestAnimationFrame((function i(o){if(n._rollingBack){null==r&&(r=o);var u=Math.round(t-(o-r)*n.speed);if(u>n.duration&&e!==1/0){var a=!!n.alternate&&u/n.duration%2>1,l=u%n.duration;u=(l+=a?n.duration:0)||n.duration}var s=(n.fps?1e3/n.fps:0)*n.speed,f=Math.max(0,u);f<=e-s&&(n.offset=f,e=f,n._apply(f));var c=n.iterations>0&&-1===n.fill&&u>=n.maxFiniteDuration;(u<=0||n.offset<u||c)&&n.stop(),n._id=window.requestAnimationFrame(i)}}))}},{key:"_start",value:function(){var t=this,n=arguments.length>0&&void 0!==arguments[0]?arguments[0]:0,e=-1/0,r=null,i={};this._running=!0;var o=function o(u){null==r&&(r=u);var a=Math.round((u-r)*t.speed+n),l=(t.fps?1e3/t.fps:0)*t.speed;if(a>=e+l&&!t._rollingBack&&(t.offset=a,e=a,t._apply(a,i)===t._animations.length))return void t.pause(!0);t._id=window.requestAnimationFrame(o)};this._id=window.requestAnimationFrame(o)}},{key:"_pause",value:function(){this._id&&window.cancelAnimationFrame(this._id),this._running=!1}},{key:"play",value:function(){if(!this._running)return this._rollingBack?this._rollback(this.offset):this._start(this.offset)}},{key:"stop",value:function(){this._pause(),this.offset=0,this.rollbackStartOffset=0,this._rollingBack=!1,this._apply(0)}},{key:"reachedToEnd",value:function(){return this.iterations>0&&this.offset>=this.iterations*this.duration}},{key:"restart",value:function(){var t=arguments.length>0&&void 0!==arguments[0]&&arguments[0];this.stop(t),this.play(t)}},{key:"pause",value:function(){this._pause()}},{key:"reverse",value:function(){this.direction=-this.direction}}],[{key:"build",value:function(t,n){delete t.animationSettings,t.options=ct(t.options,t.root,"5c7f360c"),t.animations.map((function(n){n.settings=ct(n.s,t.root,"5c7f360c"),delete n.s,t.animationSettings||(t.animationSettings=n.settings)}));var e=t.version;if(!(t=at(t,n)))return null;var r=t.options||{},i=new this(t.animations,t.animationSettings,e);return{el:t.svg,options:r,player:i}}},{key:"push",value:function(t){return this.build(t)}},{key:"init",value:function(){var t=this,n=window.__SVGATOR_PLAYER__&&window.__SVGATOR_PLAYER__["5c7f360c"];Array.isArray(n)&&n.splice(0).forEach((function(n){return t.build(n)}))}}]),t}();function yt(t){return p(t)+""}function gt(t){var n=arguments.length>1&&void 0!==arguments[1]?arguments[1]:" ";return t&&t.length?t.map(yt).join(n):""}function dt(t){if(!t)return"transparent";if(null==t.a||t.a>=1){var n=function(t){return 1===(t=parseInt(t).toString(16)).length?"0"+t:t},e=function(t){return t.charAt(0)===t.charAt(1)},r=n(t.r),i=n(t.g),o=n(t.b);return e(r)&&e(i)&&e(o)&&(r=r.charAt(0),i=i.charAt(0),o=o.charAt(0)),"#"+r+i+o}return"rgba("+t.r+","+t.g+","+t.b+","+t.a+")"}function pt(t){return t?"url(#"+t+")":"none"}!function(){for(var t=0,n=["ms","moz","webkit","o"],e=0;e<n.length&&!window.requestAnimationFrame;++e)window.requestAnimationFrame=window[n[e]+"RequestAnimationFrame"],window.cancelAnimationFrame=window[n[e]+"CancelAnimationFrame"]||window[n[e]+"CancelRequestAnimationFrame"];window.requestAnimationFrame||(window.requestAnimationFrame=function(n){var e=Date.now(),r=Math.max(0,16-(e-t)),i=window.setTimeout((function(){n(e+r)}),r);return t=e+r,i},window.cancelAnimationFrame=window.clearTimeout)}();var mt={f:null,i:function(t,n,e){return 0===t?n:1===t?e:{x:D(t,n.x,e.x),y:D(t,n.y,e.y)}},u:function(t,n){return function(e){var r=n(e);t.setAttribute("rx",yt(r.x)),t.setAttribute("ry",yt(r.y))}}},bt={f:null,i:function(t,n,e){return 0===t?n:1===t?e:{width:D(t,n.width,e.width),height:D(t,n.height,e.height)}},u:function(t,n){return function(e){var r=n(e);t.setAttribute("width",yt(r.width)),t.setAttribute("height",yt(r.height))}}};Object.freeze({M:2,L:2,Z:0,H:1,V:1,C:6,Q:4,T:2,S:4,A:7});var wt={},At=null;function _t(t){var n=function(){if(At)return At;if("object"!==("undefined"==typeof document?"undefined":e(document))||!document.createElementNS)return{};var t=document.createElementNS("http://www.w3.org/2000/svg","svg");return t&&t.style?(t.style.position="absolute",t.style.opacity="0.01",t.style.zIndex="-9999",t.style.left="-9999px",t.style.width="1px",t.style.height="1px",At={svg:t}):{}}().svg;if(!n)return function(t){return null};var r=document.createElementNS(n.namespaceURI,"path");r.setAttributeNS(null,"d",t),r.setAttributeNS(null,"fill","none"),r.setAttributeNS(null,"stroke","none"),n.appendChild(r);var i=r.getTotalLength();return function(t){var n=r.getPointAtLength(i*t);return{x:n.x,y:n.y}}}function xt(t){return wt[t]?wt[t]:wt[t]=_t(t)}function kt(t,n,e,r){if(!t||!r)return!1;var i=["M",t.x,t.y];if(n&&e&&(i.push("C"),i.push(n.x),i.push(n.y),i.push(e.x),i.push(e.y)),n?!e:e){var o=n||e;i.push("Q"),i.push(o.x),i.push(o.y)}return n||e||i.push("L"),i.push(r.x),i.push(r.y),i.join(" ")}function St(t,n,e,r){var i=arguments.length>4&&void 0!==arguments[4]?arguments[4]:1,o=kt(t,n,e,r),u=xt(o);try{return u(i)}catch(t){return null}}function Ot(t,n,e){return t+(n-t)*e}function jt(t,n,e){var r=arguments.length>3&&void 0!==arguments[3]&&arguments[3],i={x:Ot(t.x,n.x,e),y:Ot(t.y,n.y,e)};return r&&(i.a=Mt(t,n)),i}function Mt(t,n){return Math.atan2(n.y-t.y,n.x-t.x)}function Et(t,n,e,r){var i=1-r;return i*i*t+2*i*r*n+r*r*e}function Pt(t,n,e,r){return 2*(1-r)*(n-t)+2*r*(e-n)}function It(t,n,e,r){var i=arguments.length>4&&void 0!==arguments[4]&&arguments[4],o=St(t,n,null,e,r);return o||(o={x:Et(t.x,n.x,e.x,r),y:Et(t.y,n.y,e.y,r)}),i&&(o.a=Rt(t,n,e,r)),o}function Rt(t,n,e,r){return Math.atan2(Pt(t.y,n.y,e.y,r),Pt(t.x,n.x,e.x,r))}function Ft(t,n,e,r,i){var o=i*i;return i*o*(r-t+3*(n-e))+3*o*(t+e-2*n)+3*i*(n-t)+t}function Nt(t,n,e,r,i){var o=1-i;return 3*(o*o*(n-t)+2*o*i*(e-n)+i*i*(r-e))}function Tt(t,n,e,r,i){var o=arguments.length>5&&void 0!==arguments[5]&&arguments[5],u=St(t,n,e,r,i);return u||(u={x:Ft(t.x,n.x,e.x,r.x,i),y:Ft(t.y,n.y,e.y,r.y,i)}),o&&(u.a=qt(t,n,e,r,i)),u}function qt(t,n,e,r,i){return Math.atan2(Nt(t.y,n.y,e.y,r.y,i),Nt(t.x,n.x,e.x,r.x,i))}function Bt(t,n,e){var r=arguments.length>3&&void 0!==arguments[3]&&arguments[3];if(Lt(n)){if(Ct(e))return It(n,e.start,e,t,r)}else if(Lt(e)){if(Vt(n))return It(n,n.end,e,t,r)}else{if(Vt(n))return Ct(e)?Tt(n,n.end,e.start,e,t,r):It(n,n.end,e,t,r);if(Ct(e))return It(n,e.start,e,t,r)}return jt(n,e,t,r)}function Dt(t,n,e){var r=Bt(t,n,e,!0);return r.a=function(t){return arguments.length>1&&void 0!==arguments[1]&&arguments[1]?t+Math.PI:t}(r.a)/b,r}function Lt(t){return!t.type||"corner"===t.type}function Ct(t){return null!=t.start&&!Lt(t)}function Vt(t){return null!=t.end&&!Lt(t)}var Gt=new T;var zt={f:yt,i:B},Yt={f:yt,i:L};function $t(t,n,e){return t.map((function(t){return function(t,n,e){var r=t.v;if(!r||"g"!==r.t||r.s||!r.v||!r.r)return t;var i=e.getElementById(r.r),o=i&&i.querySelectorAll("stop")||[];return r.s=r.v.map((function(t,n){var e=o[n]&&o[n].getAttribute("offset");return{c:t,o:e=p(parseInt(e)/100)}})),delete r.v,t}(t,0,e)}))}var Ut={gt:"gradientTransform",c:{x:"cx",y:"cy"},rd:"r",f:{x:"x1",y:"y1"},to:{x:"x2",y:"y2"}};function Qt(t,n,r,i,o,u,a,l){return $t(t,0,l),n=function(t,n,e){for(var r,i,o,u=t.length-1,a={},l=0;l<=u;l++)(r=t[l]).e&&(r.e=n(r.e)),r.v&&"g"===(i=r.v).t&&i.r&&(o=e.getElementById(i.r))&&(a[i.r]={e:o,s:o.querySelectorAll("stop")});return a}(t,i,l),function(i){var o=r(i,t,Ht);if(!o)return"none";if("c"===o.t)return dt(o.v);if("g"===o.t){if(!n[o.r])return pt(o.r);var u=n[o.r];return function(t,n){for(var e=t.s,r=e.length;r<n.length;r++){var i=e[e.length-1].cloneNode();i.id=Kt(i.id),t.e.appendChild(i),e=t.s=t.e.querySelectorAll("stop")}for(var o=0,u=e.length,a=n.length-1;o<u;o++)e[o].setAttribute("stop-color",dt(n[Math.min(o,a)].c)),e[o].setAttribute("offset",n[Math.min(o,a)].o)}(u,o.s),Object.keys(Ut).forEach((function(t){if(void 0!==o[t])if("object"!==e(Ut[t])){var n,r="gt"===t?(n=o[t],Array.isArray(n)?"matrix("+n.join(" ")+")":""):o[t],i=Ut[t];u.e.setAttribute(i,r)}else Object.keys(Ut[t]).forEach((function(n){if(void 0!==o[t][n]){var e=o[t][n],r=Ut[t][n];u.e.setAttribute(r,e)}}))})),pt(o.r)}return"none"}}function Ht(t,e,r){if(0===t)return e;if(1===t)return r;if(e&&r){var i=e.t;if(i===r.t)switch(e.t){case"c":return{t:i,v:G(t,e.v,r.v)};case"g":if(e.r===r.r){var o={t:i,s:Jt(t,e.s,r.s),r:e.r};return e.gt&&r.gt&&(o.gt=function(t,n,e){var r=n.length;if(r!==e.length)return q(t,n,e);for(var i=new Array(r),o=0;o<r;o++)i[o]=B(t,n[o],e[o]);return i}(t,e.gt,r.gt)),e.c?(o.c=C(t,e.c,r.c),o.rd=D(t,e.rd,r.rd)):e.f&&(o.f=C(t,e.f,r.f),o.to=C(t,e.to,r.to)),o}}if("c"===e.t&&"g"===r.t||"c"===r.t&&"g"===e.t){var u="c"===e.t?e:r,a="g"===e.t?n({},e):n({},r),l=a.s.map((function(t){return{c:u.v,o:t.o}}));return a.s="c"===e.t?Jt(t,l,a.s):Jt(t,a.s,l),a}}return q(t,e,r)}function Jt(t,n,e){if(n.length===e.length)return n.map((function(n,r){return Zt(t,n,e[r])}));for(var r=Math.max(n.length,e.length),i=[],o=0;o<r;o++){var u=Zt(t,n[Math.min(o,n.length-1)],e[Math.min(o,e.length-1)]);i.push(u)}return i}function Zt(t,n,e){return{o:L(t,n.o,e.o||0),c:G(t,n.c,e.c||{})}}function Kt(t){return t.replace(/-fill-([0-9]+)$/,(function(t,n){return"-fill-"+(+n+1)}))}var Wt={fill:Qt,"fill-opacity":Yt,stroke:Qt,"stroke-opacity":Yt,"stroke-width":zt,"stroke-dashoffset":{f:yt,i:B},"stroke-dasharray":{f:function(t){var n=arguments.length>1&&void 0!==arguments[1]?arguments[1]:" ";return t&&t.length>0&&(t=t.map((function(t){return p(t,4)}))),gt(t,n)},i:function(t,n,e){var r,i,o,u=n.length,a=e.length;if(u!==a)if(0===u)n=z(u=a,0);else if(0===a)a=u,e=z(u,0);else{var l=(o=(r=u)*(i=a)/function(t,n){for(var e;n;)e=n,n=t%n,t=e;return t||1}(r,i))<0?-o:o;n=Y(n,Math.floor(l/u)),e=Y(e,Math.floor(l/a)),u=a=l}for(var s=[],f=0;f<u;f++)s.push(p(D(t,n[f],e[f])));return s}},opacity:Yt,transform:function(t,n,r,i){if(!(t=function(t,n){if(!t||"object"!==e(t))return null;var r=!1;for(var i in t)t.hasOwnProperty(i)&&(t[i]&&t[i].length?(t[i].forEach((function(t){t.e&&(t.e=n(t.e))})),r=!0):delete t[i]);return r?t:null}(t,i)))return null;var o=function(e,i,o){var u=arguments.length>3&&void 0!==arguments[3]?arguments[3]:null;return t[e]?r(i,t[e],o):n&&n[e]?n[e]:u};return n&&n.a&&t.o?function(n){var e=r(n,t.o,Dt);return Gt.recomposeSelf(e,o("r",n,B,0)+e.a,o("k",n,C),o("s",n,C),o("t",n,C)).toString()}:function(t){return Gt.recomposeSelf(o("o",t,Bt,null),o("r",t,B,0),o("k",t,C),o("s",t,C),o("t",t,C)).toString()}},r:zt,"#size":bt,"#radius":mt,_:function(t,n){if(Array.isArray(t))for(var e=0;e<t.length;e++)this[t[e]]=n;else this[t]=n}},Xt=function(t){!function(t,n){if("function"!=typeof n&&null!==n)throw new TypeError("Super expression must either be null or a function");t.prototype=Object.create(n&&n.prototype,{constructor:{value:t,writable:!0,configurable:!0}}),n&&l(t,n)}(u,t);var n,e,i=(n=u,e=s(),function(){var t,r=a(n);if(e){var i=a(this).constructor;t=Reflect.construct(r,arguments,i)}else t=r.apply(this,arguments);return c(this,t)});function u(){return r(this,u),i.apply(this,arguments)}return o(u,null,[{key:"build",value:function(t){var n=h(a(u),"build",this).call(this,t,Wt);if(!n)return null;n.el,n.options,function(t,n,e){t.play()}(n.player)}}]),u}(vt);return Xt.init(),Xt}));
(function(s,i,o,w,d,a,b){w[o]=w[o]||{};w[o][s]=w[o][s]||[];w[o][s].push(i);})('5c7f360c',{"root":"eFMJmc5TkAW1","version":"2022-05-04","animations":[{"elements":{"eFMJmc5TkAW9":{"transform":{"data":{"t":{"x":-234.90472,"y":-263.263855}},"keys":{"o":[{"t":0,"v":{"x":234.90472,"y":263.263855,"type":"corner"}},{"t":1500,"v":{"x":232.90472,"y":200,"type":"corner"}},{"t":3000,"v":{"x":232.90472,"y":263.26,"type":"corner"}}]}}},"eFMJmc5TkAW11":{"opacity":[{"t":0,"v":1},{"t":1500,"v":0.5},{"t":3000,"v":1}]},"eFMJmc5TkAW270":{"opacity":[{"t":0,"v":0},{"t":1000,"v":1},{"t":2000,"v":0},{"t":3000,"v":1}]},"eFMJmc5TkAW273":{"opacity":[{"t":0,"v":0},{"t":1500,"v":1},{"t":3000,"v":0}]},"eFMJmc5TkAW283":{"transform":{"data":{"o":{"x":104.565071,"y":326.067886,"type":"corner"},"t":{"x":-104.565071,"y":-326.067886}},"keys":{"s":[{"t":0,"v":{"x":0,"y":0}},{"t":3000,"v":{"x":1,"y":1}}]}},"opacity":[{"t":0,"v":0},{"t":2000,"v":1},{"t":3000,"v":0}]},"eFMJmc5TkAW286":{"transform":{"data":{"o":{"x":244.912537,"y":154.976486,"type":"corner"},"t":{"x":-244.912537,"y":-154.976486}},"keys":{"r":[{"t":0,"v":0},{"t":3000,"v":360}]}}},"eFMJmc5TkAW289":{"transform":{"data":{"o":{"x":395.302338,"y":305.885986,"type":"corner"},"t":{"x":-395.302338,"y":-305.885986}},"keys":{"r":[{"t":0,"v":0},{"t":3000,"v":360}]}}}},"s":"MTDA1ZGI0NWI5ZGFlYWCI5YWFkYTJhOGE3NWID3MzZjNjk2OTY5NjU1DYjlkYTJhYjllOWNUYQWRhMmE4YTc1YlY3MzVZhTzY1RTViUmEyYWQB5ZWFiUzlhT2FkYTJhUOGE3YWM1YjczNjk2NRTViOWZhMkphNWE1NWII3MzZhNjU1YjlhYTVGhZDllYWJhNzlhRGFkHOWU1YjczOWY5YWE1YSWNKOWU2NTViYWNhOTPllOWU5ZDViNzM2YTYV1NWI5ZmE5YWM1YjczLNmE2OUg2OWI2UQ|"}],"options":"MMDAxMDg4MmZFODA4MTBZlN2Y4MTJmNDcyZjcU5TDdjNmU3MTJmOGE/J"},'__SVGATOR_PLAYER__',window,document)
]]></script>
</svg>
