<svg id="eEaAthG9msC1" xmlns="http://www.w3.org/2000/svg" xmlns:xlink="http://www.w3.org/1999/xlink" viewBox="0 0 2047.7 2048" shape-rendering="geometricPrecision" text-rendering="geometricPrecision"><g transform="translate(3.579919-3.579919)"><circle r="37.3" transform="translate(1279.1 1816.1)" fill="#030378"/><circle r="37.3" transform="translate(1020.2 1816.1)" fill="#030378"/><path d="M780.9,921.8c0,0-69.4,118.3-39.8,199.1c15.5,42.3,117.9-60.4,117.9-60.4l-3.5-142.8" fill="#ecc8c8" stroke="#111" stroke-width="4" stroke-miterlimit="10"/><path d="M920.6,1473.3c83.8-77.9,373.9-10.5,310.7-215.6c0,0-42.2,7.5-134.1,5.7-2.4-8.5-5.4-17.4-8.9-26.9c0,0,19.4-14.3-80.4-17-61.2-1.7-57.5,11.3-116.6,18.3-143.3,17-214.4,42.8-251.4,88.5-57.7,71.1-90.6,185.8-102.4,356.5-2.1,30.2,20,56.7,50.1,60.1l26.8,3c28.5,3.2,54.4-16.8,58.4-45.3c18.1-128.1,38.8-187.3,64.3-226.1c0,77,32.6,178.2,84.1,285c13.1,27.3,105.7,1.8,106.7-26.9c5.5-167.6-43.7-225.4-7.3-259.3Z" fill="#030378" stroke="#0a0a0a" stroke-width="4" stroke-miterlimit="10"/><path d="M643.5,1751.2c0,0,34.2,28.4,26,43.8s-151.5,58.6-156.5,46.1c-5-12.4,123.9-98.6,130.5-89.9Z" fill="#1d1d1b"/><path d="M921.3,1763.9c0,0,36.9,24.7,30.5,40.9s-144.5,74.1-150.8,62.2s112.9-111.1,120.3-103.1Z" fill="#1d1d1b"/><polyline points="562.4,1088.5 935.5,1083 1006,1313.1 646.8,1312.7" fill="#fff"/><path d="M1322.9,942.8c-32.4-59.1-99.2-107.1-147.6-132.3-26.8-13.6-72.8-34.1-125.9-39-84.6-7.9-131.8,12.4-162.1,31.2-13.7,10.5-86.8,56.5-111,118c0,0,13.2,19.1,41.1,32.3-34.4,153.3-42.3,361.4-42.3,361.4c226.8-25.7,467.2,25.8,467.2,25.8c4.5-138.3,13-255.5,4.6-347.1c61.3-11.9,76-50.3,76-50.3Z" fill="#293c43" stroke="#111" stroke-width="4" stroke-miterlimit="10"/><ellipse rx="41.1" ry="42.7" transform="translate(757.3 1187.5)" fill="none" stroke="#1d1d1b" stroke-width="3" stroke-miterlimit="10"/><line x1="1140.5" y1="1575" x2="1140.4" y2="1786.5" fill="none" stroke="#0c0c0c" stroke-width="6" stroke-miterlimit="10"/><path d="M1277.9,1815.8c0,0-135.2-160.6-257.3,2.7" fill="none" stroke="#0c0c0c" stroke-width="6" stroke-miterlimit="10"/><path d="M941.6,1494.9c0,0,147.2,104.5,299.3,34.9c203.8-93.2,198.7-432.1,95.4-464.6" fill="none" stroke="#0c0c0c" stroke-width="6" stroke-miterlimit="10"/><ellipse rx="169.5" ry="174.5" transform="matrix(.9353 0.354-.354 0.9353 1619.818702 1353.411606)" fill="#0fffe0"/><g><g><path d="M1808.2,1456.2c-33.6,88.7-130.6,134.1-216.7,101.5s-128.7-130.9-95.2-219.5c33.1-87.4,127.9-132.8,213.1-102.8c1.2.4,2.4.8,3.5,1.3c2.4.9,4.7,1.9,7,2.9c81.5,35.1,120.9,130.4,88.3,216.6Z" fill="none" stroke="#1d1d1b" stroke-width="6" stroke-miterlimit="10"/><path d="M1719.1,1239c0,0-222.7,96.3-133.3,316.7" fill="none" stroke="#1d1d1b" stroke-width="6" stroke-miterlimit="10"/><path d="M1715.1,1238.5c0,0,77.2,220.3-129.7,318.6" fill="none" stroke="#1d1d1b" stroke-width="6" stroke-miterlimit="10"/><path d="M1536.8,1276.6c0,0,58.5,106.9,282,127" fill="none" stroke="#1d1d1b" stroke-width="6" stroke-miterlimit="10"/><path d="M1483.8,1406.6c0,0,106.6-20.3,284,109.8" fill="none" stroke="#1d1d1b" stroke-width="6" stroke-miterlimit="10"/></g></g><g transform="translate(7.923743 0)"><g><g><path d="M799.2,328.8c0,0-13.2-14.9-51.5-16.5s-96.6,1.4-119.1-1.4c-22.6-2.7-33.3,5.2-33.3,5.2s10.6-15.3-13.1-30.7c-23.8-15.4-64.7-54-83.4-46.5l62.5,73.6L609,338.4l190.2-9.6Z" fill="#fff" stroke="#111" stroke-width="3" stroke-miterlimit="10"/></g></g><g><path d="M836.7,358.6L743.5,626.1c-3.6,10.5-14.2,16.8-25.2,15.2L510,609.4c-2.1-.3-4.2-.9-6.1-1.8l-38.6-17.7c-4.1-1.9-7.5-4.9-9.9-8.7L383.4,466c-3.7-5.9-4.5-13-2.3-19.6l70.7-208.9c5.7-16.9,27.8-21.1,39.3-7.5l67.4,79.4c1.8,2.2,4.1,4,6.6,5.3l38.3,20.8c3.7,2,7.9,3,12.1,2.8l198.3-10.1c16.3-.9,28.2,15,22.9,30.4Z" fill="#030378" stroke="#0a0a0a" stroke-width="4" stroke-miterlimit="10"/></g><g><g><path d="M609,338.5l-47.7-25.9L459,587c0,0,7.8,22.5,47.7,22L609,338.5Z" fill="#fff" stroke="#111" stroke-width="3" stroke-miterlimit="10"/></g></g></g><g transform="translate(10.862342 0)"><path d="M1798.7,648.3c0,0-254.8,89.5-317.7,111.4s-116.8,38.3-104.3,97.7s25.9,74.7,60.8,68s321.4-82.9,338.2-94.4c16.8-11.4,91.5-86.8,87.7-95.4-3.7-8.7-23.3-.5-23.3-.5l-22.9-78.2c0,0,8.9-7.9,1-14.4" fill="#030378" stroke="#0a0a0a" stroke-width="4" stroke-miterlimit="10"/><path d="M1817.3,656.9c0,0-142,52-115.6,124.9c29.5,81.5,111.1-7.8,138.5-46.7" fill="#fff"/><g><path d="M1767.2,532.3c0,0-243.5,78.3-303.6,97.4-60,19.1-111.5,33.3-101.2,89.8s22.6,71.4,55.8,65.9s306.4-70.4,322.6-80.7s88.8-79.8,85.5-88.1-22-1-22-1L1784.6,541c0,0,8.6-7.3,1.3-13.6" fill="#534268" stroke="#111" stroke-width="3" stroke-miterlimit="10"/><path d="M1783.4,542.2c0,0-135.7,45.6-112.6,115.3c25.9,77.9,105.3-4.5,132.3-40.7" fill="#fff" stroke="#111" stroke-width="3" stroke-miterlimit="10"/></g><path d="M1776.6,534.1c0,0-84.8,44.4-135.4,62.4s-242.6,90.7-262.3,64.8-39.6-77-7.9-89.3s378.2-121.2,378.2-121.2" fill="#030378" stroke="#0a0a0a" stroke-width="4" stroke-miterlimit="10"/><path d="M1749.3,450.8c0,0-129.3,28.2-118.3,69.7c27.1,102.2,106.6,36.1,145.7,13.6" fill="#fff" stroke="#111" stroke-width="2" stroke-miterlimit="10"/><g><g><path d="M1403.7,812.6c29.1-7.2,58.6-13.3,88.2-18.3c33.8-5.8,67.9-9.8,101.8-15.4c1.6-.3.9-2.7-.7-2.4-33.4,5.5-66.9,9.5-100.3,15.1-30.1,5-60,11.3-89.6,18.6-1.6.4-1,2.8.6,2.4v0Z" fill="#1d1d1b"/></g></g><g><g><path d="M1449,833.7c-8.7-6.4-21-1-28.5,4.8-6.7,5.2-15.4,15.4-9.4,24.2c3.5,5.1,10.6,6.7,16.3,7.5c7.7,1.2,16,.5,23.2-2.3c16.6-6.3,14.2-28.9-1.9-34.3-1.5-.5-2.2,1.9-.7,2.4c8.7,2.9,13.8,12.5,10.9,21.3-2.2,6.8-10.4,9.2-16.6,10.3-8.6,1.5-27.4,1.7-30.5-9.1-2.2-7.7,6.7-15.7,12.2-19.4c6.5-4.5,16.6-8.4,23.7-3.2c1.3.9,2.6-1.2,1.3-2.2v0Z" fill="#1d1d1b"/></g></g><g><g><path d="M1485.5,832.4c-6.5,4.8-8.8,12.1-4.4,19.2c4.1,6.6,12.6,9.6,20,7.5c9.4-2.7,13.1-13,10.1-21.7-3.6-10.8-17.3-7-25.2-4.9-1.6.4-.9,2.8.7,2.4c6.7-1.8,16.5-5.3,21.4,1.7c5.1,7.3,0,17.5-7.6,20.1-6,2.1-12.4-.7-16.4-5.3-4.9-5.6-3-12.8,2.7-16.9c1.2-.9,0-3.1-1.3-2.1v0Z" fill="#1d1d1b"/></g></g><g><g><path d="M1725.6,756.8c25.8-25,61.6-35.5,88.3-59.3c1.2-1.1-.6-2.8-1.8-1.8-26.6,23.8-62.5,34.3-88.3,59.3-1.1,1.2.6,2.9,1.8,1.8v0Z" fill="#1d1d1b"/></g></g><g><g><path d="M1749.4,777c22.1-14.9,43.4-31,65.5-45.9c1.3-.9.1-3-1.3-2.2-22.1,14.9-43.4,31-65.5,45.9-1.3,1,0,3.1,1.3,2.2v0Z" fill="#1d1d1b"/></g></g><g><g><path d="M1633,637.3c-13,4.3-33.9,6.4-39.7,21-3.3,8.2.6,18,3.2,25.8c2.3,6.9,5.4,13.9,11.6,18.1c6.2,4.3,14.6,3.5,21.6,2.4c6.1-1,15-1.5,19.4-6.5c3.9-4.3,1.3-11.7-.1-16.4-4.2-14.3-9.5-28.4-14.2-42.6-.5-1.5-2.9-.9-2.4.7c3.7,11,7.4,22.1,11.1,33.1c2.1,6.2,6.7,15.2,4.6,22-1.6,5.4-11.9,6.1-16.3,6.9-7.5,1.3-15.7,2.5-22.5-1.7-5.7-3.5-8.4-10.6-10.4-16.6-2.6-7.7-5.9-16.4-3.2-24.5c2.2-6.7,9.7-10.1,15.8-12.4c7.2-2.7,14.8-4.5,22.2-6.9c1.5-.5.9-2.9-.7-2.4v0Z" fill="#1d1d1b"/></g></g><g><g><path d="M1442.1,692.1c39.6-10.5,79.3-20.9,119.2-30.2c1.6-.4.9-2.8-.7-2.4-39.9,9.3-79.6,19.6-119.2,30.2-1.5.4-.9,2.8.7,2.4v0Z" fill="#1d1d1b"/></g></g><g><g><path d="M1591.1,508.6c-7.5,13.7-4.8,31.2-.5,45.4c4.3,14.3,12.2,30.1,25.2,38.5c1.4.9,2.6-1.3,1.3-2.2-12.5-8-19.7-23.3-24-37-4.3-13.4-6.8-30.5.3-43.5.7-1.4-1.5-2.7-2.3-1.2v0Z" fill="#1d1d1b"/></g></g><g><g><path d="M1401.4,585.4c44.8-14.9,91-25.1,136.1-39c1.5-.5.9-2.9-.7-2.4-45.1,13.9-91.3,24.1-136.1,39-1.5.6-.8,3,.7,2.4v0Z" fill="#1d1d1b"/></g></g><g><g><path d="M1695.8,626.5c30.1-18.8,62.6-33.3,92.9-51.7c1.4-.8.1-3-1.3-2.2-30.3,18.4-62.9,32.9-92.9,51.7-1.3.9,0,3.1,1.3,2.2v0Z" fill="#1d1d1b"/></g></g><g><g><path d="M1713.9,652.7c22.1-14.9,43.4-31,65.5-45.9c1.3-.9.1-3-1.3-2.2-22.1,14.9-43.4,31-65.5,45.9-1.3.9,0,3.1,1.3,2.2v0Z" fill="#1d1d1b"/></g></g><g><g><path d="M1661,548.3c33.3-13.7,67.3-25.4,99.8-41.1c1.4-.7.2-2.8-1.3-2.2-32.3,15.6-66.1,27.2-99.2,40.9-1.4.6-.7,3,.7,2.4v0Z" fill="#1d1d1b"/></g></g><g><g><path d="M1656,526.9c25.3-8.4,50.1-18.4,75.4-26.8c1.5-.5.9-2.9-.7-2.4-25.3,8.4-50.1,18.4-75.4,26.8-1.5.5-.8,2.9.7,2.4v0Z" fill="#1d1d1b"/></g></g><g><g><path d="M1399.2,685.8c-11.7,25.7.8,58.4,15.9,80.1.9,1.3,3.1.1,2.2-1.3-14.5-20.8-27.2-52.7-15.9-77.5.6-1.5-1.5-2.8-2.2-1.3v0Z" fill="#1d1d1b"/></g></g><g><g><path d="M1748.2,452.8c-.1,7.2.5,13.8,4.3,20.1c1.5,2.5,6.9,7,6,9.8-1,3.4-2.3,7-1.7,10.6.6,3.8,2.1,6.7,4.7,9.6c1,1.1,8.9,7,8.3,8.4-3.1,6.8.9,12.6,6,17.1c1.2,1.1,3-.7,1.8-1.8-3.9-3.5-7.5-7.5-6-13.1.3-1.2,1.3-2.2.6-3.5-1.4-2.4-3.8-4.3-5.9-6.2-4.6-4.1-7.7-8.5-6.8-15c.4-2.6,2-5.3,1.9-7.9-.1-1.9-2.4-3.7-3.5-5-5.9-7-7.2-14.3-7.1-23.2-.1-1.5-2.6-1.5-2.6.1v0Z" fill="#1d1d1b"/></g></g><g><g><path d="M1815.4,663.8c-.1,6.6.4,12.8,3.8,18.6c1.2,2.1,6.5,6.7,5.9,9.1-1,3.6-2.5,7.5-1.5,11.3.9,3.3,2.3,5.7,4.6,8.2c1.5,1.6,8,5.7,7.1,8-2.6,6.2,1.5,11.5,5.9,15.5c1.2,1.1,3-.7,1.8-1.8-3.4-3-6.5-6.4-5.8-11.3.2-1.3,1.5-2.6.8-4-1-2.1-3.2-3.8-4.9-5.3-4-3.6-7.2-7-7.2-12.8c0-3.1,1.7-5.8,2-8.9.2-1.8-2.4-3.9-3.4-5-5.5-6.5-6.6-13.3-6.5-21.6-.1-1.6-2.5-1.6-2.6,0v0Z" fill="#1d1d1b"/></g></g></g><g><path d="M563.5,870.8l19,68.5c2.6,9.3,1,19.3-4.3,27.3-13.4,20.2-46.2,56.7-115.7,75.3-70.6,18.9-110.6-.5-127.8-13.4-6.2-4.6-10.8-11.2-12.9-18.7L301,937.4l262.5-66.6Z"/><path d="M413,782.6L610.8,838c10.2,2.9,13.1,15.9,5,22.8-39.2,33.5-128.3,111.6-162,157-3.6,4.9-10.1,6.6-15.6,4.3L238,939.2c-9.1-3.7-11-15.7-3.7-22.1C273.2,883,372,797.7,404.1,783.3c2.8-1.3,6-1.5,8.9-.7Z"/><path d="M417.3,884.8c0,0-105.4,66.5-113.5,81.7-8,15.2,8.1,84.3,8.1,84.3-16.6,58.5-19.1,121.9,9,155.1c0,0,34.6-76.9,19.1-109.3-15.4-32.4-21.4-45.7-21.4-45.7s-13.5-73.6-9.2-84.1c.1,0,116.8-77.8,107.9-82Z" fill="#030378"/><path d="M584.1,856.4L482.9,956.2l-25.3,25-6.3,6.2-3.2,3.1c-1,1-2.1,1.8-3.3,2.5-4.7,2.9-10.7,3.6-16,1.7l-67.4-22.6c-.5-.2-1.1.1-1.3.6s.1,1.1.6,1.3l67.2,23.1c5.9,2.1,12.8,1.4,18.2-1.9c1.3-.8,2.6-1.8,3.8-2.9l3.2-3.1l6.4-6.2L485,958.2l102-99.1c.8-.8.8-2.1,0-3-.7-.5-2-.6-2.9.3v0Z" fill="#fff"/></g><path d="M1327.6,949.5c-1.1-4-4.7-6.7-8.8-6.7-46.2.9-72.1,16.5-82.1,24.1-3,2.3-4.5,6.1-3.8,9.8c6.7,39.4,11.5,91.8-2.5,145.6-11.1,42.8-71,93.6-149.1,107.9c0,0-72.3-23-95.3-12.1s-44.1,42.2-28.4,38.4c15.7-3.7,34.4-14,34.4-14v0c0,0-39,23.9-29.4,30.6c9.5,6.7,43.2-14.3,43.2-14.4v0c-.1.1-44.1,32.1-33.1,35.5s44.4-21.2,44.4-21.2v0c0,0-39.8,31.5-26.9,35.2s32.8-26.2,42.3-19.5c7,4.9,22,22.9,38.2,22.4v0c100.7,3.2,196.5-45.2,244.9-121c43-67.7,31.3-167.8,12-240.6Z" fill="#ecc8c8" stroke="#111" stroke-width="4" stroke-miterlimit="10"/><polyline points="1194.8,1312.7 647.6,1312.7 564.4,1089.1 934.9,1083.7 1004.4,1312.4" stroke="#1d1d1b" stroke-width="4" stroke-miterlimit="10"/><path d="M873.6,720.9c-23.1-21.8-22.8-63.4.7-92.9c23.5-29.6,61.4-35.9,84.5-14.2c23.1,21.8,22.8,63.4-.7,92.9-23.5,29.6-61.4,36-84.5,14.2Z" fill="#030378"/><path d="M1132,565.7c-42.5-19.5-139.3-17.1-181.3,3.6-40.5,19.1-68.1,67.5-59.9,115.6c8.6,50,45,71.5,85.6,82.5-2.8,25.6-5.5,89.6,35.8,100.5c51.9,13.6,87-11,91.5-26c3-9.7,7.7-41.1,10.7-61.9c38-5.6,71.7-23.8,87.5-68.3c21.9-58.8-15.3-128.5-69.9-146Z" fill="#ecc8c8" stroke="#111" stroke-width="4" stroke-miterlimit="10"/><g><g><path d="M1119.3,648.3c-10.8-8.5-25.6-16.7-39.7-15.1-2.5.3-2.6,4.3,0,4c13.1-1.5,27.3,6.3,36.9,13.9c2,1.7,4.9-1.2,2.8-2.8v0Z" fill="#1d1d1b"/></g></g><g><g><path d="M985.4,631.9c-13.8,1.8-30,6.8-38.7,18.4-1.6,2.1,1.9,4.1,3.5,2c7.7-10.2,24.4-14.9,35.2-16.4c2.5-.3,2.6-4.3,0-4v0Z" fill="#1d1d1b"/></g></g><g><path d="M1095,655.8c2.6,4.8,2.2,32.8-4.6,31.1-7.9-2.3-4.8-36.1,3.7-32.1" fill="#1d1d1b"/></g><g><path d="M979.3,655.7c2.6,4.8,2.2,32.8-4.6,31.1-7.9-2.3-4.8-36.1,3.7-32.1" fill="#1d1d1b"/></g><path d="M1100.4,713.8c0,0-58.4,18.6-117.8,1.3c0,0,21.8,40.5,56.3,42.5s61.5-43.8,61.5-43.8Z" fill="#fff" stroke="#000" stroke-width="3" stroke-miterlimit="10"/><path d="M897.4,631.3c0,0,123.9,4.6,207.4-61.7c0,0,31.1,59.9,97.4,70.9c0,0,44.9-91.6-66.3-112.4c0,0-40.9-66.3-158.5-40.9-117.5,25.4-89.8,145.9-80,144.1Z" fill="#787876"/><g><g><path d="M1168.1,743.5c-23.1-21.8-22.8-63.4.7-92.9c23.5-29.6,61.4-35.9,84.5-14.2c23.1,21.8,22.8,63.4-.7,92.9-23.5,29.6-61.4,35.9-84.5,14.2Z" fill="#030378"/><path d="M1219.8,665.2c0,0,17.1-.2,19.8,14c2.6,14.2-6.8,27.6-22.3,30.1" fill="none" stroke="#1d1d1b" stroke-width="3" stroke-miterlimit="10"/></g><path d="M1194.7,641.6c0,0-16.1-57.8-39.2-77.4s-26-28-20.2-35.3c5.8-7.2,54.9,4.3,77.6,44.8s22.7,74.6,22.7,74.6" fill="#030378"/></g><ellipse rx="41.1" ry="42.7" transform="translate(757.3 1187.5)" fill="#fff"/><path d="M737.6,1473.5c0,0,4.9-89.3,108.3-128.3" fill="none" stroke="#1d1d1b" stroke-width="4" stroke-miterlimit="10"/></g></svg>
